<svg xmlns="http://www.w3.org/2000/svg" xmlns:xlink="http://www.w3.org/1999/xlink" viewBox="0 0 119.4676 116.2103"><defs><style>.a{fill:none;}.b{clip-path:url(#a);}.c{fill:#fefefe;}.d{fill:#030303;}.e{fill:#f1f1f1;}.f{fill:#ddd;}.g{fill:#e2e2e2;}.h{fill:#ededed;}.i{fill:#e7e7e7;}.j{fill:#e4e4e4;}.k{fill:#eaeaea;}.l{fill:#e9e9e9;}.m{fill:#e0e0e0;}.n{fill:#efefef;}.o{fill:#d8d8d8;}.p{fill:#c8c8c8;}.q{fill:#d5d5d5;}.r{fill:#eee;}.s{fill:#c9c9c9;}.t{fill:#d6d6d6;}.u{fill:#dedede;}.v{fill:#e1e1e1;}.w{fill:#ececec;}.x{fill:#e3e3e3;}.y{fill:#dfdfdf;}.z{fill:#e6e6e6;}.aa{fill:#dadada;}.ab{fill:#e5e5e5;}.ac{fill:#ebebeb;}.ad{fill:#e8e8e8;}.ae{fill:#dbdbdb;}.af{fill:#cacaca;}.ag{fill:#d7d7d7;}.ah{fill:#f0f0f0;}.ai{fill:#d9d9d9;}.aj{fill:#d2d2d2;}.ak{fill:#c1c1c1;}.al{fill:#c4c4c4;}.am{fill:#cecece;}.an{fill:#cbcbcb;}.ao{fill:#f5f5f5;}.ap{fill:#d1d1d1;}.aq{fill:#fcfcfc;}.ar{fill:#dcdcdc;}.as{fill:#f2f2f2;}.at{fill:#ccc;}.au{fill:#f8f8f8;}.av{fill:#d3d3d3;}.aw{fill:#f4f4f4;}.ax{fill:#d4d4d4;}.ay{fill:#fbfbfb;}.az{fill:#c3c3c3;}.ba{fill:#f3f3f3;}.bb{fill:#f6f6f6;}.bc{fill:#040404;}.bd{fill:#080808;}.be{fill:#0c0c0c;}.bf{fill:#0a0a0a;}.bg{fill:#0b0b0b;}.bh{fill:#0d0d0d;}.bi{fill:#1a1a1a;}.bj{fill:#0f0f0f;}.bk{fill:#181818;}.bl{fill:#121212;}.bm{fill:#212121;}.bn{fill:#161616;}.bo{fill:#141414;}.bp{fill:#131313;}.bq{fill:#1f1f1f;}.br{fill:#171717;}.bs{fill:#101010;}.bt{fill:#1c1c1c;}.bu{fill:#1e1e1e;}.bv{fill:#0e0e0e;}.bw{fill:#1d1d1d;}.bx{fill:#111;}.by{fill:#1b1b1b;}.bz{fill:#191919;}.ca{fill:#272727;}.cb{fill:#262626;}.cc{fill:#232323;}.cd{fill:#070707;}.ce{fill:#fafafa;}.cf{fill:#f9f9f9;}</style><clipPath id="a"><path class="a" d="M59.7343,10.9207A46.4083,46.4083,0,1,0,106.142,57.3291,46.4086,46.4086,0,0,0,59.7343,10.9207ZM65.1019,40.68a3.1845,3.1845,0,0,1,2.9423-2.0421,3.2437,3.2437,0,0,1,3.17,2.5464A3.1283,3.1283,0,0,1,69.751,44.456a3.2532,3.2532,0,0,1-3.6678-.2647A3.143,3.143,0,0,1,65.1019,40.68ZM45.7675,64.0848a3.2542,3.2542,0,0,1-3.6683-.2646,3.1438,3.1438,0,0,1-.9809-3.5113,3.1843,3.1843,0,0,1,2.9424-2.0422,3.2438,3.2438,0,0,1,3.17,2.5464A3.1284,3.1284,0,0,1,45.7675,64.0848ZM69.751,71.2825a3.2534,3.2534,0,0,1-3.6678-.2647,3.143,3.143,0,0,1-.9813-3.5112,3.1848,3.1848,0,0,1,2.9423-2.0421,3.2438,3.2438,0,0,1,3.17,2.5464A3.1282,3.1282,0,0,1,69.751,71.2825Zm3.2741-11.5351c-2.6148-2.023-6.6806-2.0248-9.6568-.96a11.4887,11.4887,0,0,0-4.5525,2.9964c.87,10.35,1.271,13.6916,3.567,23.6824.9014,3.9219-5.1267,5.5805-6.0272,1.6618a124.36,124.36,0,0,1-2.75-14.9978c-.5829-4.0608-.8792-8.167-1.1925-12.2692-.9351-12.229-1.17-19.3276-1.1919-31.4108-.007-4.0289,6.2436-4.0216,6.2511,0,.0183,10.2507.1783,15.47.8063,25.87a17.4427,17.4427,0,0,1,3.4274-1.56,16.9478,16.9478,0,0,1,15.7386,2.5676C80.6238,57.7866,76.1683,62.1789,73.0251,59.7474Z"/></clipPath></defs><g class="b"><path d="M144.1185-32.5289V-14.97c-1.4485.867-.875,1.7341,0,2.6012V5.8393c-1.5668.65-.7381,1.3006,0,1.9509V25.3486c-.3242.3374-1.1189.2275-1.034.869.0336.2536.7057.2065,1.034.4316V39.005a3.5236,3.5236,0,0,0,0,3.2516v3.2515c-1.923-.062-2.7509.8883-2.556,2.78a4.381,4.381,0,0,1-.2165.8846c-1.0149,1.8807-2.6142,3.3538-3.3263,5.4962-.5849,1.76-2.4973,1.4507-3.9616,1.3136-1.61-.1506-2.4315.1814-3.0963,1.8981-.9569,2.471-2.55,4.6434-3.4,7.2559-.7049,2.1668-2.7771,1.99-5.0129.7936.99.8587,1.9166,1.0362,2.5085,1.6984a2.6083,2.6083,0,0,1,.5446,2.9908,1.9079,1.9079,0,0,1-2.6772,1.1037c-2.6592-1.22-3.7536.1544-4.5,2.4182-.5759,1.7466-1.6429,3.2728-2.3367,4.9762-.9436,2.3165-2.2634,3.9653-5.1665,2.686-1.3767-.6067-2.1526.2805-2.8378,1.4084-.8979,1.4779-1.9017,2.9211-3.8846,3.0666-.7537-.2535-1.6287.0367-2.3047-.5793.5859.7677,1.5805.2062,2.2244.77a3.5842,3.5842,0,0,1,.9994,2.3371c.17,2.1863-1.0226,3.294-2.89,2.2828-2.5816-1.3981-3.7929-.4279-4.684,1.8823a4.2165,4.2165,0,0,1-4.892,2.8491c-1.3953-.2246-1.7388.2183-2.4061,1.2244-1.3325,2.0092-3.19,2.8772-5.5551,1.4851-2.1273-1.2518-4.6811-.216-6.9125-1.3057-.8763-.428-1.2426.9379-1.7326,1.612-1.7772,2.4447-3.16,2.6235-5.6023,1.0341-2.38-1.5487-5.206-.9607-7.8317-1.2852-.9736-.12-1.35.93-1.6312,1.7709a1.9564,1.9564,0,0,1-2.4577,1.5346,1.87,1.87,0,0,1-1.4878-2.2081c.2642-2.3754-.6475-3.1822-2.9987-3.9329-2.5672-.82-4.6321-3.06-6.7359-4.8945-1.4908-1.3-.54-2.9748.3125-4.8521-2.6294.5215-3.8316-.7173-5.411-1.9229a22.53,22.53,0,0,0-8.52-4.1571c-1.88-.4268-2.7965-1.2973-2.1279-3.1333.884-2.4273-.2579-3.6655-2.2532-4.5923-2.12-.9845-4.0322-2.6321-6.6663-1.86-.7831.23-1.6755-.0111-1.7093-.9728-.0517-1.4708-.8356-3.0594.0265-4.3839.4948-.76,1.6044-.2019,2.4245.0548,1.2734.3987,2.2663,1.6108,3.9,1.1905-1.868-1.9759-3.7967-3.809-6.64-4.26a9.7657,9.7657,0,0,1-2.235-.36c-1.6194-.6659-2.8981-1.5852-.96-3.2174,1.8169-1.53,1.0019-2.4289-.4577-3.4933A30.9027,30.9027,0,0,0,3.11,49.4633a18.99,18.99,0,0,1-6.7013-2.3315,7.48,7.48,0,0,0-1.6992-.934,1.907,1.907,0,0,0-2.0936.4907c-.7743.9579.34,1.27.7718,1.7761a4.4857,4.4857,0,0,1,1.0277,1.631,2.006,2.006,0,0,1-.2021,1.3838,6.9485,6.9485,0,0,0-3.9231,5.3783,2.7788,2.7788,0,0,1-2.9458.8463,1.6637,1.6637,0,0,1-.8423-.668c-.6259-1.91-.8364-3.9659.1945-5.6505,1.1463-1.8734-.8385-2.7663-.8161-4.2427.0692-4.5475-.07-9.0993.05-13.6449.1482-5.61-.0822-11.214-.0454-16.8219.0984-14.9822-.0022-29.965.0152-44.94-.009-.31-.0025-.86.16-.8805,3.0463-.386-.6085-.63-.0154-.938a1.0652,1.0652,0,0,1-.1443-.6048c-.573-2.951.7291-3.612,3.5366-3.5252,7.7086.2385,15.4478-.2818,23.1353.1815,5.748.3465,11.4606-.247,17.2244.0924,4.7551.28,9.696-.1486,14.5488-.1651,7.1187-.0243,14.2436-.26,21.356.0008,6.6531.2434,13.2964-.335,19.9385-.0239,6.8711.3218,13.7347-.1441,20.6033-.0333,7.3576.1188,14.7172.1018,22.0695.0113a1.5264,1.5264,0,0,1,.8579.2231c.2486-.53.18,2.9118.6488.052.0375-.2281.5053-.2771.8221-.2756,3.2066.01,6.4109.0929,9.6064-.0336A4.0677,4.0677,0,0,1,144.1185-32.5289Z"/><path class="c" d="M-13.6832-29.0642q-.0481,18.53-.083,37.06c-.0007.5988-.3245,1.42.3768,1.7482.7137.3343,1.6966.1,1.5523,1.461-.1454,1.3721-1.2192.3935-1.6519.8112-.6147.5935-.2674,1.4171-.2731,2.1274-.0351,4.3263-.5113,8.7288.137,12.9558.5289,3.4482-.2665,6.6846-.1763,10.0188.0964,3.5643.0217,7.1333.0217,11.0646.798-.6342.9065-2.0263,2.0475-1.4379,1.0076.52.3641,1.29.2058,1.95-.6727,2.8043-2.7343,5.2979-1.8751,8.444a12.0037,12.0037,0,0,1-.0837,2.0062c.0935-.9457.2864-1.6236,1.0986-1.8941l2.4631-.7049a1.364,1.364,0,0,1,.8508-.3331C-5.6824,58.3491-1.76,59.1046,1.9,60.5312c2.9167,1.137,6.1175,1.5519,8.7292,3.8093,1.6318,1.41,4.5305.7711,6.59,2.0988.4059.2617.9563-.4192.9624-1.02a1.3262,1.3262,0,0,0-1.1885-1.3329c-1.467-.32-2.92-.8877-4.3257-1.1588-5.1752-.9981-9.5828-4.0922-14.751-5.0451-2.4537-.4525-3.2626-2.0816-2.1154-4.68.96-2.175.1052-2.7269-1.7459-2.9663-.8909-1.3935-2.5-1.92-3.763-3.0555,2.1755-1.97,4.0366-3.276,6.76-.5135a7.3651,7.3651,0,0,0,5.3364,1.918c3.5768-.3861,6.3116,3.01,9.898,1.7674,1.8086,2.6072,5.4005,3.0883,7.1106,5.4534,1.5686,2.17-1.3283,2.988-3.64,4.4927,5.3862.7378,9.5831,2.2492,13.164,5.3083-.5994,2.5747-1.895,3.0322-4.1989,1.0389a9.5227,9.5227,0,0,0-3.7562-1.5c1.9711,1.485.1225,3.1411.5153,4.9536,4.6424-2.8805,7.1655,1.6046,10.5891,2.9146,1.27.4859,1.19,2.0966.4773,3.4364-.3672.69-1.0267,1.4824-.2383,2.3729.7472.844,1.4926.5853,2.2957.1128a3.0231,3.0231,0,0,1,.8719-.2767c1.3816,3.7429,6.4206,2.2737,8.0111,5.6148.657,1.38,1.4436,1.7127,2.7536.9208.6673-.4033,1.44-.6558,2.0578.0467.7174.8152.3373,1.6206-.256,2.3163-1.7338,2.0333-.5573,3.4546,1.2525,4.0962a10.415,10.415,0,0,1,3.3744,2.3741c.8842.7648,1.3681,1.8021,3.12,1.2882,1.2875-.3777,3.0183.5358,2.1007,2.7652a6.5812,6.5812,0,0,0-.1907,1.928c-.0706.8979.277,1.4566,1.2363,1.5245a1.1859,1.1859,0,0,0,1.4252-1.3291c.03-3.04,1.9853-2.961,4.0342-2.3713a19.9836,19.9836,0,0,0,4.8286.3279c.7889.0352,1.8356-.3953,2.05.9277.1246.7683-.1777,1.7462,1.335,1.3689,1.1852-.2956,2.3631-.2976,2.7464-1.77.7305-2.8073,1.9255-4.1779,4.3977-1.3458.483.5534.9307.2091,1.4034-.0724,1.39-.8279,2.6222-.4271,3.907.3874,2.5087,1.59,4.0795.8172,4.8911-2.1647.2372-.8713.0415-2.89,2.0133-.9739,1.4673,1.4261,4.0481.4571,4.7407-1.4875,1.6178-4.5426,1.6931-4.589,5.7932-2.4946,1.4459.7386,1.9022.2445,2.0224-1.2439.0856-1.06-.62-1.82-.7156-2.7771q-.3375-.2142-.1974-.37a.3542.3542,0,0,1,.26-.1411c1.9028-.8866,3.4662-1.94,3.977-4.283.4549-2.086,2.6536-1.3885,3.3939-.7977,2.3342,1.863,2.994.1324,3.7471-1.3968,1.1294-2.2934,2.1493-4.6431,3.1518-6.9962.9437-2.2148,2.1014-3.622,4.5224-1.6127.8729.7244,1.76.8679,2.4617-.1921a1.8323,1.8323,0,0,0-.6509-2.7774c-.7844-.5268-1.5358-1.2067-2.6182-1.0464-.5562.0824-1.1239.0473-1.2068-.6776a1.6414,1.6414,0,0,1,.6317-1.4043c.4973-.4705.8979-.3159,1.4219-.05,3.8995,1.9744,3.9926,1.98,4.7614-2.2915.3207-1.7815,1.7481-2.6395,2.5764-3.9773a9.736,9.736,0,0,1,5.3737-3.1146c.7318-.0189,1.9008.1531,1.8245-.7855-.2395-2.9483,2.4111-3.8454,3.6941-5.6956,1.0126-.9522,1.4619-.0665,1.8552.6369.4554.8143.5374,1.8306,1.3293,2.4685V55.913c-.8148.6432-1.8347-.9107-2.6329.2523.3435,1.711,1.87.4392,2.6329,1.0484V68.2689c-1.2828,1.0766-1.0338,2.6064-1.1784,4.0193a3.0633,3.0633,0,0,1-.4208,1.51c-1.9939,2.8983-1.9986,2.8951,1.5992,3.5749V88.4284c-1.6394,1.3007-1.1181,2.6013,0,3.9019v10.4049c-.4376,3.1739-2.1,5.978-2.73,9.0981-.5761,2.8505-2.0572,3.6459-4.6438,2.2467-2.2889-1.2381-3.2027-1.1825-3.233,1.8179a2.8626,2.8626,0,0,1-4.84,2.2867c-2.4731-1.9572-3.0394-.9409-3.3854,1.5045a4.02,4.02,0,0,1-3.239,3.6208,2.1844,2.1844,0,0,1-.8739-.2092c-.0872-.06-.1708-.129-.2609-.1881-.93-.6109-1.13-2.4778-2.6282-1.961-1.4918.5146-.5862,2.0921-.8731,3.166-.0553.2073-.0926.42-.1629.628a3.3649,3.3649,0,0,1-.8187,1.1413,3.5115,3.5115,0,0,1-2.1945.8987,3.0154,3.0154,0,0,1-1.3817-.3036c-.9312-.3953-1.3442-2.0966-2.613-1.4214-1.5531.8265-.1266,2.6683-.933,3.8508-1.0787,1.2167-2.0869,2.4266-1.658,4.27.3911,1.6812-.8973,2.72-2.1792,4.0835,3.8845.8409,5.8914,4.2608,9.5177,4.9911a1.755,1.755,0,0,1,1.19,2.7492H104.4815c-.4359-.5293.1017-1.2461-.3523-1.795-.9244.2788-.434,1.3085-.9472,1.795H91.4858a2.2114,2.2114,0,0,0-3.2489,0H84.3381c-.4443-.6188.0957-1.3772-.2483-2.0987-.679.6072-.3116,1.6338-1.0512,2.0987H71.9922a3.3435,3.3435,0,0,0-4.5485,0h-3.249a.8939.8939,0,0,1-.0609-.5991c.1458-.6712,1.1927-1.0593.6411-1.9308a.5788.5788,0,0,0-.8285-.112c-.8113.57-.2134,1.35-.2612,2.0361a1.7263,1.7263,0,0,1-.14.6058H51.8488c-1.3-1.5437-2.5992-2.4073-3.8987,0H44.0514c.3563-1.668,1.1637-3.1227,1.0669-5.0386-.1135-2.2486,2.1743-2.7891,4.1068-3.1475a2.2978,2.2978,0,0,1,1.3284.8276c.5706.62,1.1255,1.4827,2.1236.89.79-.47.3885-1.3534.4187-2.0737a3.7648,3.7648,0,0,1,.2321-1.4028,3.2774,3.2774,0,0,1,5.1579-.8156c.6175.5451,1.2412,1.37,2.1685.8185.9072-.54.4126-1.5254.4192-2.3323a6.403,6.403,0,0,1,.2477-1.2355c.3041-.9886,1.3546-1.3773,1.8054-2.2336.3358-.6379.3359-1.3176-.4968-1.5433-.62-.1679-1.02.2877-1.1057.8745-.1544,1.053.1242,2.1562-.3589,3.1793-.9315,1.4978-2.3,1.73-3.88,1.3574-1.5915-2.0954-4.0187-1.72-6.1986-2.0825-1.8648-1.332-2.1591-2.8107-1.0473-4.9571a38.7387,38.7387,0,0,0,3.5007-9.9813c.4394-1.4391,1.4089-2.7273,1.4436-4.848-2.41,1.3916-.5091,3.3368-1.2539,4.6024a3.63,3.63,0,0,1-3.768,1.7893,3.1479,3.1479,0,0,1-.9018-.3314c-1.8191-1.61-2.1966-3.3935-.5881-5.3746,1.264-1.5567.7059-2.4042-1.0841-2.5009-1.5722-.0848-2.7623-1.16-4.4932-1.4827.412,1.3853,1.5609,1.02,2.2975,1.3129,1.6942.6742,2.9442,1.8422,2.2885,3.6722-.6729,1.8781-2.6537,2.763-4.2177,1.5927-2.3509-1.759-5.5807-.8058-7.7018-3.04-.747-.7869-1.5952-.1264-1.8289.9366-.0694.3156-.0173.6517-.0725.968-.4363,2.4969-1.8818,3.9745-3.3977,3.2866-2.0161-.9149-2.0654-2.6884-1.1988-4.39,1.0552-2.0715.7225-3.4211-1.4377-4.4222-1.1593-.5372-2.5107-1.3671-1.8487-2.9308.5455-1.2883,1.8737-.7265,2.8841-.4717,1.4124.3562,2.79-.2958,4.1844-.0388,1.5587.2486,1.9837,2.5522,4.22,2.271-.8717-2.18-3.0514-1.5657-4.2759-2.5232a3.1694,3.1694,0,0,1-.9262-4.5717c.9843-1.638.9953-2.6163-1.2234-2.63-1.2031-.0077-2.0873-1.1261-3.3685-.9464-.3584,1.2535.7125,1.41,1.3578,1.8482.8645.5872,2.2435.9676,1.6812,2.3434-.5742,1.4046-1.9072,1.1348-3.1037.8026a7.0549,7.0549,0,0,0-1.2595-.3107c-2.1346-.1858-1.9989,1.3938-2.2637,2.79-.3131,1.65-.9965,3.4629-3.0135,3.068-1.68-.3289-1.9555-2.0974-1.9026-3.7144.0445-1.36,1.5393-2.8581.3283-3.98a9.6989,9.6989,0,0,0-5.0146-2.1364c-4.4287-.7038-8.2756-2.899-12.3941-4.388-2.02-.73-4.2116-.74-6.2233-1.6994-1.2492-.5959-1.9123.6226-2.0313,1.8277-.1624,1.6432-.3184,3.247-2.6528,2.278-1.9693-.8174-2.7362-2.0556-1.2886-4.0214a1.0865,1.0865,0,0,0-.12-1.6695,44.9894,44.9894,0,0,0-2.0761,4.9283c-.38,1.0754.4349,1.7288,1.273,2.3643,3.3592,2.5471,3.1111,2.48,1.5541,6.2516-2.77,6.7107-4.34,13.646-2.3044,20.9265a3.0362,3.0362,0,0,1,.1666,1.91c-1.6445,4.2026-.6549,8.583-.9117,12.8772.0116.459.0051.9172-.0057,1.3743.0165,1.8389-.4733,3.7818,1.1035,5.2969-2.2169.4887-2.6647-.3666-2.6617-2.5963q.1184-87.2211.0133-174.4421c-.0021-2.0048.42-2.5025,2.4735-2.5q76.9268.1017,153.8535.0375c1.4216-.0005,2.8665-.2606,2.27,1.9666-4.5906-2.2522-9.4977-.991-14.2646-1.287a.4233.4233,0,0,1-.7147.0015c-1.6115.29-3.3312-.646-4.8787.8779-1.0115.9959-1.6007-1.0873-2.9379-.9781-3.226.2636-6.4882.0759-9.7356.096-.471.003-1.29-.248-1.275.4965.0848,4.1056-1.3063,1.4018-1.8354.3322-.4852-.981-1.1334-.8264-1.8272-.8293-4.6669-.0193-9.5416-.8235-13.9226.2968-2.6013.6652-4.4069-.1086-6.602-.2417a64.3535,64.3535,0,0,0-11.59.0476,31.521,31.521,0,0,1-8.6851.04,47.6713,47.6713,0,0,0-12.6273-.025c-3.0139.3694-5.8827-.1728-8.817-.1369-3.247.04-6.5165-.23-9.7379.0607-6.02.5437-12.0171-.5146-18.1658.0572.1219,1.012.701,2.226-.7991,3.0829-1.294-2.4714-2.789-4.8614-5.9291-2.0368-3.2081-2.3469-6.8608-.7322-10.29-1.1-1.112-.1193-2.9076-.9024-3.0349,1.533-.0255.4888-1.0374.5833-1.5974.0543-1.3031-1.2311-6.8481-2.452-8.06-1.5511-1.2188.9061-.3938,2.35-.4585,3.5593A.9993.9993,0,0,1-13.6832-29.0642Z"/><path d="M50.0345,117.099l4.1514-1.1136-.0567-.24.0417.241c.0342,1.85.7911,3.8439-1.5851,5.0566-.7.3576-.5434,1.5428-.2544,2.4189a2.0673,2.0673,0,0,1-.8551,2.571c-2.7192,1.4764-1.5417,3.0508-.2887,4.6927.3238.9531-.5445,1.2424-.976,1.7772-1.493,1.0656-1.0464,2.4434-.6123,3.82a1.1008,1.1008,0,0,1-.3516.7883c-.9417.4751-1.891.9359-2.8229,1.43-.79.4185-1.5444.9224-.8181,1.9468,1.6,2.2563-.0046,3.3691-1.5553,4.5176h-1.3c-2.25-2.5452-2.25-2.5452-5.1983,0H20.659c-.65-1.2076-1.3-.5135-1.9493,0H-11.83c-2.6337-.9887-1.8776-3.25-1.9483-5.2.2919-.5636,1.1234-.2665,1.3891-.8721a1.3846,1.3846,0,0,1-1.3589-.5c-.01-3.0317-.0695-6.0643-.0078-9.0945.0252-1.2364-.6326-2.7478,1.1281-3.5295.233-.1034.3647-1.1616.1336-1.4756-2.79-3.7911-.8091-8.0434-1.1116-12.0526-.08-1.0587.4776-2.2139-.11-3.3512a1.5766,1.5766,0,0,1-.0384-.9208c4.1455-.821,1.1216-5.6829,4.3383-7.5417,1.5285-.8832-1.2946-3.2207-2.3233-3.2821-2.5032-.1493-2.0418-1.585-2.0358-3.0136.0085-1.9974,1.8482-3.3937,1.6475-5.6243-.0893-.9922,1.7157-1.1491,2.6776-.405.7537.5831,1.4289,1.4335.3225,2.42-3.3474,2.9837-.1291,3.1911,1.6023,4.15a2.2945,2.2945,0,0,0-.0669-2.311c-.5369-1.4779.7133-2.1065,1.5-2.8727.8711-.8489,1.8459-.5,2.5783.2668,1.245,1.3033,3.0984.8537,4.3159,1.4348,2.6054,1.2437,5.6389,1.3459,7.9609,3.1146.9836.7492,1.9154,1.5186,3.1857,1.2476,2.9906-.6379,5.0452,1.9955,7.9285,2.1651,1.4359.0844,1.0312,2.2325.1978,3.5246-1.2685,1.9668-.6742,3.6547.7064,5.3012a4.1335,4.1335,0,0,0,2.0928-4.1841c-.27-2.5669,1.101-3.2626,3.3842-2.5855.6144.1822,1.1827.5149,1.7868.7388.7645.2833,1.6243.3713,1.88-.5742.2763-1.0233-.5492-1.04-1.3369-1.2221A6.9873,6.9873,0,0,1,26.033,97.52c-1.0825-.8193-.2783-1.7511.1643-2.54.5709-1.017,1.5749-1.0127,2.0892-.1509,1.0866,1.8208,2.6236,1.469,4.2372,1.2979.7369-.0782,1.5255-.0163,1.8491.9191.2762.7983-.248,1.2027-.7286,1.6244-1.8114,1.5891-2.24,3.3288-.6192,5.3132a.4411.4411,0,0,1,.1534.4862q-.0922.234-.1786.2341c-2.2465,1.5009-4.6221.6749-7.4736-.2214.8165,1.7759,1.522,2.73,2.6611,2.9994,3.1277.74,3.8287,2.202,1.7035,4.7678a2.67,2.67,0,0,0-.0342,3.562,1.1631,1.1631,0,0,0,1.6888.3213,2.3972,2.3972,0,0,0,1.2614-3.27,1.9531,1.9531,0,0,1,.9334-2.7246,1.8561,1.8561,0,0,1,2.7483.7854c.8348,1.2969,1.8977,2.1024,3.5137,1.1974,1.39-.7787,1.9765.292,2.5484,1.1892.927,1.4543,2.0392,1.3175,3.3284.5782.7735-.4437,1.6313-.8632,1.2536-1.9357-.462-1.3118-1.2942-2.2249-2.8948-2.0091a12.266,12.266,0,0,1-1.6194-.0305c-.7377,0-1.2972-.27-1.3444-1.0647a2.0787,2.0787,0,0,1,.6508-2.0519,1.3536,1.3536,0,0,1,1.8024.15c1.2956,1.75,3.0914,1.6889,4.9392,1.6025.8075-.0378,1.63.16,1.8181,1.0118.1765.8.2785,1.7118-.6958,2.2855-2.5434,1.4976-1.6012,3.3451-.4588,5.1917-.7093,1.8918-3.0494,3.3013-1.711,5.7993-.0729,1.2244-1.274,1.69-1.7663,2.6327A1.2111,1.2111,0,0,0,46,126.9569a.8366.8366,0,0,0,.8747.285,1.1927,1.1927,0,0,0,.8317-1.2351c.0571-1.0656-.4065-2.1441.0777-3.2C50.8188,121.8072,49.2182,118.9755,50.0345,117.099Z"/><path d="M116.1777,145.0052c.14-1.1416-.712-2.3785-1.3607-2.2912-4.07.5477-5.4637-4.2883-9.2541-4.3585-1.5452-.0286-1.77-1.2516-.3148-2.1717,1.6717-1.0571,2.2912-2.171,1.3882-4.26-.848-1.9619,1.3469-2.3086,2.4691-3.1527a.6676.6676,0,0,1,.8129-.0288c.4992.4121.7325,1.0662,1.2226,1.4636,1.4848,1.2039,2.3268.6647,2.5542-1.0852.13-1-.4931-2.156.661-2.9224l1.8255-.7916a1.9815,1.9815,0,0,1,2.3063.4195c.7566.5475,1.5333,1.3218,2.5175.5918.9963-.7391.305-1.727.1783-2.617a1.633,1.633,0,0,1,.1183-.9172c2.1388-.4622,3.4832-1.5833,3.3221-3.9763-.0809-1.202-.136-2.3508,1.3292-2.9147,1.51-.581,2.1285.2453,2.75,1.39a1.9149,1.9149,0,0,0,2.7817.7594c1.1-.5654,1.9847-1.4752,1.4368-2.8622-.4459-1.1287-1.084-2.01.4607-2.946,1.4812-.8971,2.1582.1167,3.0479.7975.9512.7279,1.94,1.6284,3.1442.7246a2.6576,2.6576,0,0,0,1.0108-3.3895,1.1153,1.1153,0,0,1,.35-1.6265c1.5887-1.1765,2.559-2.4757,1.6553-4.6552-.4424-1.0669.7874-1.1879,1.5276-1.4493v16.908c-.2786.2694-.92.1935-.9155.6275.0043.4172.62.4168.9155.6731V133.3c-.9138.8671-.6557,1.7341,0,2.6012v3.9019c-.5458.4159-1.2273.1636-1.85.3768.4259.7192,1.4349.2409,1.85.9238.7339,3.3357-.5459,4.5186-3.907,3.9514a31.5874,31.5874,0,0,0-5.19-.05c-.8664-1.3369-1.7328-.748-2.5991,0Z"/><path class="d" d="M-5.9453,50.2363c1.3607-1.8167,2.5888-.4419,3.4566.4021.99.9623.459,1.8342-.8385,2.3788-1.3479.5658-.8243,1.86-.6847,2.8491.1709,1.2111,1.2538,1.1493,2.2181,1.3988,3.5629.922,7.3992,1.21,10.23,4.019.1493.1481.4161.4.5031.3562,2.9016-1.4673,4.9326,1.9057,7.6567,1.3653a2.502,2.502,0,0,1,1.777,4.5828c-1.41.8574-2.1748-.0925-2.909-1.0893a3.2029,3.2029,0,0,0-.2147-.24c-1.5607-1.7241-3.2771.144-4.7835-.2152-1.2747-.304-.3454-3.835-3.26-2.5944-.3849.1639-1.0465-.181-1.5263-.4052-3.9175-1.8313-7.8423-3.61-12.254-3.9054-1.5608-.1045-1.3625-2.1194-2.6351-2.5831.2734-2.28,2.5845-3.3149,3.261-5.3483Z"/><path class="e" d="M25.4173,57.9454c-.4566.8907-.6237,2.1584-1.801,1.9362-.97-.1831-2.1287-.8878-2.21-1.982-.0679-.9109,1.0053-1.2285,1.8716-1.3371A1.8175,1.8175,0,0,1,25.4173,57.9454Z"/><path class="f" d="M18.7147,1.8425c-.2084.7349-.6991,1.451-1.507,1.2281-.7258-.2-1.7928-.5281-1.6487-1.6337C15.6525.72,16.11-.1708,17.0012.133,17.7091.3743,18.6881.6809,18.7147,1.8425Z"/><path class="g" d="M45.3805,73.8639a2.8555,2.8555,0,0,1-1.33-2.31.7824.7824,0,0,1,1.01-.8942c.876.2836,2.1134.5286,2.2175,1.5491C47.3685,73.0977,46.2432,73.42,45.3805,73.8639Z"/><path class="g" d="M115.318,69.4373c-.4055,1.1826-1.0733,1.9154-2.1336,1.8146-.8277-.0788-1.1077-.8251-1.0537-1.6739.0733-1.1509.7631-1.3031,1.7263-1.2828A1.454,1.454,0,0,1,115.318,69.4373Z"/><path class="h" d="M105.9413,66.2369c1.3226.287,2.6961-.8671,3.111,1.0636.2245,1.0451-.3211,1.8664-1.2263,1.8506C106.06,69.12,106.634,67.4488,105.9413,66.2369Z"/><path class="f" d="M105.6293,59.4921c-.2561.9685-.9429,1.4168-1.4747,1.3749a1.7249,1.7249,0,0,1-1.72-1.9137,1.05,1.05,0,0,1,1.0729-1.0027C104.538,58.0622,104.9931,58.9933,105.6293,59.4921Z"/><path class="i" d="M37.8917,54.55c.6571.4267,1.6941.6148,1.5841,1.6948-.0931.9151-.8733,1.11-1.6766,1.0686A1.3281,1.3281,0,0,1,36.4315,55.87,1.2389,1.2389,0,0,1,37.8917,54.55Z"/><path class="j" d="M113.4367,55.4345c-.4206.7286-.7755,1.6768-1.7241,1.67a1.266,1.266,0,0,1-1.2992-1.4972c.2083-.7541.7633-1.6983,1.6473-1.7526C112.8771,53.8044,113.1972,54.6878,113.4367,55.4345Z"/><path class="k" d="M107.4239,73.6865a2.0167,2.0167,0,0,1-1.7,1.2185c-1.0942.08-1.531-.8212-1.6877-1.6286a1.16,1.16,0,0,1,1.1751-1.2459C106.3106,71.9952,106.8669,72.8574,107.4239,73.6865Z"/><path class="l" d="M112.2118,14.2131c.9192.1849,1.9686.2665,2.0642,1.483.0718.9146-.5389,1.2308-1.4214,1.239-1.3642.0125-1.3642-1.1362-1.6266-1.9422C110.9835,14.2417,111.7443,14.3155,112.2118,14.2131Z"/><path class="m" d="M17.889,37.0484c-1.09-.12-1.0105-.9231-1.0464-1.6457-.0533-1.0726.5665-1.2414,1.4269-1.02.6362.1637,1.7661-.1989,1.64.9157C19.7941,36.3169,18.6878,36.6208,17.889,37.0484Z"/><path class="i" d="M116.077,29.3218c-.2688.8958-.5671,1.8481-1.8111,1.8159A1.2607,1.2607,0,0,1,112.93,30.006c-.0913-1.3281,1.1419-1.3709,1.9641-1.6928C115.6478,28.0182,116.0607,28.4726,116.077,29.3218Z"/><path class="n" d="M122.0375,11.8415c-.2239.8375-.5531,1.66-1.5386,1.759-1.0335.1039-1.1956-.8387-1.2224-1.5087a1.5618,1.5618,0,0,1,1.4627-1.7434C121.6,10.3045,121.9654,11.0069,122.0375,11.8415Z"/><path class="o" d="M104.0129,40.4845a1.1343,1.1343,0,0,1-1.3789-1.0486,1.6347,1.6347,0,0,1,1.5717-1.6674,1.8222,1.8222,0,0,1,1.35,1.1349C105.7463,39.9559,104.6928,40.1388,104.0129,40.4845Z"/><path class="i" d="M48.1735,78.5884l2.8507,1.7734c-.7117,1.0482-1.8247,1.8369-2.67,1.3573C47.4537,81.2077,47.9031,79.8459,48.1735,78.5884Z"/><path class="m" d="M102.5916,11.2507c-.4791.86-.9639,1.6141-1.8733,1.6441-.6347.021-1.3273-.5048-1.1651-1.1626.1717-.6961.1452-1.9414,1.3228-1.752C101.5,10.0805,102.0234,10.8073,102.5916,11.2507Z"/><path class="p" d="M12.9722,14.9c-1.2739-.063-1.2828-.8486-1.2648-1.6312.0167-.7257.3823-1.4042,1.09-1.3445,1.0231.0863,1.22,1.1259,1.3354,1.9142C14.262,14.717,13.373,14.696,12.9722,14.9Z"/><path class="q" d="M22.04,29.8361c-.4677.78-1.0121,1.5168-2.0119,1.2478-.6193-.1666-1.2354-.761-.9113-1.454a1.7254,1.7254,0,0,1,1.8073-1.1A1.1886,1.1886,0,0,1,22.04,29.8361Z"/><path class="r" d="M2.4665,9.0983A1.7637,1.7637,0,0,1,1.008,10.6715c-.8188.0962-1.2688-.6126-1.25-1.4392C-.2235,8.44.225,7.4274.8013,7.4168,1.5872,7.4024,2.249,8.2119,2.4665,9.0983Z"/><path class="j" d="M41.0816,58.0253c1.6756-.4131,2.3463-1.9637,3.5552-.9153a1.5008,1.5008,0,0,1,.0252,2.06C43.3107,60.2961,42.6736,58.7152,41.0816,58.0253Z"/><path class="o" d="M84.2325,17.6364c.9764.4006,1.8506.7482,1.9023,1.7466a1.25,1.25,0,0,1-1.2233,1.2743c-1.225-.0493-1.2352-1.333-1.576-2.1408C83.1649,18.1123,83.74,17.5967,84.2325,17.6364Z"/><path class="s" d="M80.9182,90.7434A3.2142,3.2142,0,0,1,78.54,92.12c-.6961.0417-.5571-.7926-.5445-1.2918.0338-1.3432,1.0222-1.1658,1.8781-1.0728C80.3974,89.812,80.9477,89.962,80.9182,90.7434Z"/><path class="f" d="M106.2961,55.134c-.3458-.9724-2.4541-1.2937-1.1346-2.68a1.2974,1.2974,0,0,1,1.9819.0277C108.4225,53.7914,106.6206,54.166,106.2961,55.134Z"/><path class="t" d="M121.8814,52.0685c-.2955.7965-.6271,1.2987-1.4219,1.18-.8364-.1251-1.8069-.1252-1.6477-1.39.083-.66.3629-1.3247,1.1866-1.1231A2.7174,2.7174,0,0,1,121.8814,52.0685Z"/><path class="u" d="M92.5853,1.7514c-.0956,1.1917-1.0432.7481-1.6628.7952-.5639.0428-1.5015.1646-1.2669-.7993.1779-.7311.4081-1.7609,1.4857-1.8094C92.361-.117,92.0974,1.1267,92.5853,1.7514Z"/><path class="v" d="M110.5282,18.7475c.4718,1.751,2.1013,2.1709,1.1243,3.3934-.4809.6017-1.6823,1.3077-2.2112.5118C108.7828,21.6619,109.7689,20.6086,110.5282,18.7475Z"/><path class="w" d="M118.3878,39.0829c-.7794-.1328-1.4865-.4945-1.5657-1.31-.0852-.8763.38-1.8459,1.2575-1.8681.9284-.0235,1.182,1.0439,1.3371,1.8491C119.5591,38.4929,119.11,38.9289,118.3878,39.0829Z"/><path class="x" d="M44.7225,19.9984a1.5892,1.5892,0,0,1-1.2692-1.4346,1.3968,1.3968,0,0,1,1.4737-1.6414c.6557-.0315,1.5579.3862,1.3926.8962A8.1722,8.1722,0,0,1,44.7225,19.9984Z"/><path class="k" d="M24.9142,23.7613c-.9305.6261-1.4136,2.2959-2.8971.973-.5544-.4943-1.32-1.2059-.4936-1.8731C22.8742,21.77,23.8329,22.9875,24.9142,23.7613Z"/><path class="u" d="M111.1876,77.2152c-.451-.6781-1.2088-1.3348-1.2942-2.07-.1034-.89.906-1.0137,1.6154-.9371.7873.0851,1.4187.6,1.2622,1.4625C112.6365,76.4121,111.9815,76.8547,111.1876,77.2152Z"/><path class="y" d="M29.936,45.93a2.1812,2.1812,0,0,1-1.96,1.3995c-.87-.0114-1.1526-.9463-1.0808-1.7.07-.738.6408-1.031,1.4248-.8572C29.0331,44.9306,29.8634,44.8641,29.936,45.93Z"/><path class="g" d="M42.2118,45.4872c-.97-.0675-1.2591-.8389-1.319-1.5414-.0647-.758.5722-1.11,1.2968-1.0567.9353.0683,1.82.5666,1.7857,1.491C43.946,45.16,42.8117,45.0842,42.2118,45.4872Z"/><path class="z" d="M110.6409,43.5c-.786-.9018-2.1667-1.5661-1.287-3.1332.28-.4992.79-.5353,1.3064-.1073C111.9532,41.331,111.9275,42.3794,110.6409,43.5Z"/><path class="m" d="M118.16,43.4043a1.8316,1.8316,0,0,1-1.4415,1.6368c-.9.198-1.3544-.6145-1.5741-1.2961-.3236-1.0035.52-1.39,1.2491-1.3564A1.8381,1.8381,0,0,1,118.16,43.4043Z"/><path class="aa" d="M57.0061,81.3174c-.3236,1.5119-.9118,2.0414-1.5735,2.2094-.9313.2364-1.4008-.7329-1.3853-1.31.02-.7479.4036-1.8186,1.398-1.7645C56.0956,80.4877,56.7123,81.142,57.0061,81.3174Z"/><path class="j" d="M97.2292,83.3477a3.4134,3.4134,0,0,1-2.4117,1.2409c-.8275.0772-.8422-.5615-.666-1.0666.2711-.7773.4987-1.815,1.7019-1.4165C96.4031,82.2876,97.1507,82.4235,97.2292,83.3477Z"/><path class="g" d="M45.2092,78.2766a2.119,2.119,0,0,1-1.822,1.4419c-.6592.078-1.3255-.5293-1.1431-1.1492a2.499,2.499,0,0,1,1.3614-1.57C44.3076,76.81,44.7125,77.7466,45.2092,78.2766Z"/><path class="ab" d="M103.8511,45.7623c.0086.9175-.5723,1.0666-1.25,1.0882a1.5944,1.5944,0,0,1-1.6844-1.5276.9418.9418,0,0,1,1.1619-1.0665A2.255,2.255,0,0,1,103.8511,45.7623Z"/><path class="w" d="M49.9745,46.6366c.0065,1.062-.989,1.082-1.5649,1.1981a1.3263,1.3263,0,0,1-1.5243-1.2641,1.5522,1.5522,0,0,1,1.3741-1.4891A1.8012,1.8012,0,0,1,49.9745,46.6366Z"/><path class="g" d="M97.9775,23.8305c-.2228.7835-.8674.827-1.5057.8451-1.1095.0316-1.4884-.8173-1.4961-1.6326a.95.95,0,0,1,1.3447-.8865C97.0034,22.5041,97.9528,22.7613,97.9775,23.8305Z"/><path class="ab" d="M9.8982,37.8792c.968.5219,2.0458.7443,2.0582,1.6044.0069.4807-.8817,1.2-1.5021,1.4083-.819.2752-1.4441-.31-1.3082-1.21A7.7687,7.7687,0,0,1,9.8982,37.8792Z"/><path class="l" d="M3.8762,23.4326c-.0114.4869-.021,1.2412-.8883,1.2426a1.8705,1.8705,0,0,1-1.88-1.4427c-.2176-.7946.3456-1.2473,1.0207-1.3273C3.07,21.7937,3.8253,22.1235,3.8762,23.4326Z"/><path class="v" d="M116.481,22.054a1.8175,1.8175,0,0,1,1.5512,1.452,1.1967,1.1967,0,0,1-1.13,1.592c-.8621.0567-1.1926-.8419-1.3964-1.5393C115.2825,22.7951,115.97,22.4416,116.481,22.054Z"/><path class="ac" d="M38.9,17.55A1.5308,1.5308,0,0,1,37.598,16.009c-.0566-.7822.5087-1.0947,1.23-1.1254.8237-.0352,1.7321.4156,1.7962,1.0219C40.7229,16.8364,39.6225,17.1054,38.9,17.55Z"/><path class="ad" d="M60.2982,16.4876c-.2555.81-.726,1.6378-1.6149,1.6806-.5574.0268-.9911-.7338-1.0645-1.3946a1.3455,1.3455,0,0,1,1.4947-1.5906A1.25,1.25,0,0,1,60.2982,16.4876Z"/><path class="g" d="M22.405,36.6724c1.7385-.497,2.8981-.086,3.4208.9206.3016.5808-.7921,1.4065-1.414,1.4455C22.6517,39.1489,23.475,37.3979,22.405,36.6724Z"/><path class="ae" d="M17.9269,21.64c-.4663.6745-.568,1.8268-1.5786,1.7926-.4659-.0158-.9713-.8143-.9208-1.5478.0566-.8223.4575-1.5172,1.295-1.5223A1.2238,1.2238,0,0,1,17.9269,21.64Z"/><path class="x" d="M52.57,73.74c-.2234.705.2559,1.7819-.9975,1.6961-.6973-.0477-1.6653-.216-1.34-1.2361.24-.7539.6027-1.7969,1.5533-1.8545C52.6608,72.2921,52.49,73.2073,52.57,73.74Z"/><path class="ad" d="M4.9538,38.3068c-1.2123.1379-1.9057.1957-1.9633-.7243a1.34,1.34,0,0,1,1.2817-1.53,1.5882,1.5882,0,0,1,1.8513,1.3633C6.1387,38.3435,5.1153,38.2778,4.9538,38.3068Z"/><path class="g" d="M26.0921,49.748c.006,1.07,2.1312,1.8707.3181,3.0222-.4759.3021-1.2542.9291-1.6276.1809C24.0829,51.5491,25.4665,50.79,26.0921,49.748Z"/><path class="m" d="M103.7935,25.1861c-.3233.5472-.294,1.5638-1.277,1.4726-.611-.0567-1.3032-.5627-1.207-1.2534.1133-.813.4935-1.7916,1.5192-1.7194A1.2166,1.2166,0,0,1,103.7935,25.1861Z"/><path class="aa" d="M91.9694,20.7184c-.5721.5757.03,1.915-1.1437,1.9657-.85.0367-1.1895-.89-1.2489-1.5733-.09-1.0386.8076-1.4374,1.639-1.52C91.8276,19.53,91.9958,20.1422,91.9694,20.7184Z"/><path class="af" d="M73.4253,87.4148a1.0385,1.0385,0,0,1,1.1743.9881c.1128.9045.0975,1.7866-1.1747,1.7443-.5633-.0188-1.5451.2136-1.3188-.76A6.527,6.527,0,0,1,73.4253,87.4148Z"/><path class="ag" d="M108.3362,33.4133c-.1651.9738-.9241,1.0211-1.6727,1.0633-.8077.0456-1.5009-.0527-1.4179-1.1458.07-.9245.7369-.878,1.3645-.8648C107.3382,32.4813,108.1392,32.41,108.3362,33.4133Z"/><path class="ac" d="M116.8378,1.8665a1.5819,1.5819,0,0,1,1.2644,1.6318c.0687,1.0941-.87,1.3715-1.6388,1.6169a.6831.6831,0,0,1-.8851-.8943C115.8656,3.3919,115.8968,2.3529,116.8378,1.8665Z"/><path class="v" d="M7.7408,7.143c-.1081-1.82.1406-2.86,1.7335-2.7547.4463.03,1.2587.4892,1.2379.6784C10.532,6.7071,8.9814,6.4253,7.7408,7.143Z"/><path class="g" d="M99.1461,57.3065c-.2193.7476-.5734,1.3489-1.2317,1.43-.9747.1206-1.508-.7054-1.7187-1.4327-.1775-.6126.48-1.1913,1.0868-1.3282C98.3766,55.7291,98.4825,56.9463,99.1461,57.3065Z"/><path class="i" d="M110.7087,8.3307c-1.0825-.0809-2.3135.7979-2.9616-.6855a1.1026,1.1026,0,0,1,.8371-1.4825C110.208,5.8059,110.4677,6.9971,110.7087,8.3307Z"/><path class="j" d="M24.6434,33.1161c.2644-1.2076.8071-2.2955,1.6429-2.3564.98-.0715,1.3144,1.1476,1.71,2.0791C26.8732,33.545,25.7964,33.013,24.6434,33.1161Z"/><path class="k" d="M115.195,11.6818c-1.0175-.9069-2.1061-1.6685-1.4757-2.9559.346-.7067,1.4844-.5669,1.9789-.083C116.863,9.7828,115.5405,10.5836,115.195,11.6818Z"/><path class="h" d="M70.1381,26.5466c-.5429.9318-.73,2.0782-1.6925,2.0082-.6189-.0451-1.08-.9615-1.0428-1.782.04-.8809.5185-1.5106,1.4036-1.314C69.3184,25.5724,69.72,26.186,70.1381,26.5466Z"/><path class="ah" d="M109.1572,63.728c-.0226-1.5272-.8812-2.6726.399-3.3451.4354-.2287,1.6714.0585,1.7586.347C111.7488,62.1659,110.496,62.6329,109.1572,63.728Z"/><path class="k" d="M64.0554,60.3322a1.4417,1.4417,0,0,1-1.2062-1.2735c-.1177-.798.0035-1.5486.9141-1.7668.908-.2175,1.0761.4345,1.0246,1.1306C64.7365,59.1171,64.9831,59.9576,64.0554,60.3322Z"/><path class="i" d="M49.1961,65.9209a2.26,2.26,0,0,1-1.7912,1.5112,1.8442,1.8442,0,0,1-1.1117-.86c.3431-.7518.7219-1.7553,1.3632-2.0254C48.27,64.2886,48.7773,65.2892,49.1961,65.9209Z"/><path class="ai" d="M79.11,57.0039c-.5595.46-1.1229,1.2579-1.8332,1.4231-.9156.213-.7172-.7771-.752-1.3485a1.2333,1.2333,0,0,1,1.308-1.4428C78.5433,55.6206,78.976,56.0862,79.11,57.0039Z"/><path class="y" d="M52.4665.2528c.0424.9916-.6121,1.2375-1.4084,1.2576-.68.0171-1.3078-.1579-1.1338-1.0454.1713-.8737.6413-1.6778,1.6037-1.6362C52.18-1.143,52.5109-.4655,52.4665.2528Z"/><path class="ag" d="M44.3357,4.1681c-.29.6677-.6794,1.5905-1.3321,1.5092-.49-.0611-1.0491-.9807-1.2381-1.6188a.8507.8507,0,0,1,1.0258-1.1168C43.4451,3.0905,44.3228,3.133,44.3357,4.1681Z"/><path class="ab" d="M33.6687,9.4887c-.3935.0867.0271-.8648-.0172-1.3533-.0554-.6121-.0745-1.3144.9617-1.0742.7769.18,1.9469.0636,1.8962,1.0914C36.4618,9.1163,35.25,9.062,33.6687,9.4887Z"/><path class="aj" d="M22.6107,9.4818a2.3137,2.3137,0,0,1-1.8654,1.4915c-.73.1068-.7273-.61-.7433-1.1439-.03-.9952.52-1.3374,1.439-1.2562C21.9991,8.6224,22.5286,8.7006,22.6107,9.4818Z"/><path class="m" d="M79.4607,70.12c1.2621.0516,1.9739.6105,2.0305,1.4992.0481.7548-.9424.8839-1.4318.8453a1.6721,1.6721,0,0,1-1.5329-1.3607C78.3609,70.1434,79.2046,70.2858,79.4607,70.12Z"/><path class="j" d="M47.9353,12.0491c-.0855.7658-.276,1.53-1.2034,1.5443-.8986.0143-1.2584-.7429-1.3005-1.4778-.0587-1.0254.8406-.97,1.5408-1.1391C48.0192,10.7238,47.9285,11.4084,47.9353,12.0491Z"/><path class="ac" d="M92.695,16.8551c-.7533-.1157-1.3018-.5311-1.1218-1.2413.1853-.7307.2207-1.863,1.2662-1.86.8249.0023,1.0646.9842,1.163,1.648C94.13,16.2623,93.4107,16.6388,92.695,16.8551Z"/><path class="v" d="M103.9149,21.6659c.0721-1.34-.983-2.4113.264-3.2107a1.0825,1.0825,0,0,1,1.5627.6523C106.2823,20.4669,105.2764,20.99,103.9149,21.6659Z"/><path class="ac" d="M115.5224,49.7967c-.2021,1.09-1.27,1.0719-1.9607,1.3242-.9129.3334-.9165-.6117-.8559-1.1793.0839-.7857.0564-1.8582,1.3323-1.6451C114.8152,48.4263,115.21,49.1128,115.5224,49.7967Z"/><path class="f" d="M29.7115,25.9719c-.2252.483-.3757,1.3939-1.3416,1.1932-.5978-.1243-1.2468-.6861-1.0815-1.3746.167-.6954.6621-1.5359,1.4817-1.4546C29.3132,24.39,29.81,25.045,29.7115,25.9719Z"/><path class="ak" d="M72.4581,75.1025c-.0823.6347-.1345,1.4275-.9576,1.38-1.01-.0577-.841-1.0972-1.0667-1.7527-.2963-.8606.35-1.1744,1-1.2148C72.6044,73.4426,72.3762,74.3966,72.4581,75.1025Z"/><path class="ab" d="M74.6087,27.4306c.7571.2864,1.5579.6511,1.5906,1.4585.0265.6561-.6559,1.0383-1.3525,1.0326A1.3381,1.3381,0,0,1,73.3524,28.6C73.3438,27.9014,73.9491,27.5438,74.6087,27.4306Z"/><path class="al" d="M86.76,34.6857c-.87-.6445-2.1879-.9251-1.5557-2.1488a1.3082,1.3082,0,0,1,1.6714-.5607C88.3137,32.8726,86.6792,33.75,86.76,34.6857Z"/><path class="o" d="M60.3242,90.0982c.0742.9015-.2046,1.5244-1.1408,1.5717a1.0441,1.0441,0,0,1-1.19-1.1177,1.7112,1.7112,0,0,1,1.2742-1.6257C60.0336,88.7749,60.2215,89.5157,60.3242,90.0982Z"/><path class="i" d="M45.9448,38.25c-.4993.6789-.9134,1.4545-1.738,1.321a1.5989,1.5989,0,0,1-1.304-1.6136,1.2106,1.2106,0,0,1,1.4692-.9339A1.783,1.783,0,0,1,45.9448,38.25Z"/><path class="am" d="M103.8723,86.005a.4612.4612,0,0,1-.0625.5111,1.2261,1.2261,0,0,0-1.1439.2021c-1.4189.9279-1.698-.6816-2.4-1.2642-.3392-.2816-.1524-.743.3068-1.0221,1.1967-.7276,1.4667.402,1.9176.9915A1.4781,1.4781,0,0,0,103.8723,86.005Z"/><path class="aa" d="M97.476,76.0655c.6139.2016,1.3046.5808,1.074,1.4626-.1451.5548-.6275,1.192-1.3712.9469-.6933-.2285-1.4579-.7361-1.3446-1.5145C95.9138,76.414,96.62,76.0088,97.476,76.0655Z"/><path class="v" d="M72.0489,40.8441A2.039,2.039,0,0,1,69.9671,41.86c-.97-.018-.8222-1.1915-.8242-1.7794-.0032-.9408.8-.6709,1.4347-.4962A1.9271,1.9271,0,0,1,72.0489,40.8441Z"/><path class="ad" d="M76.5777,82.5715a1.3309,1.3309,0,0,1-.9162,1.5842,1.5152,1.5152,0,0,1-1.5465-1.3244,1.3386,1.3386,0,0,1,1.174-1.6C76.2031,81.09,76.3745,81.9805,76.5777,82.5715Z"/><path class="j" d="M63.58,80.4552c-.5319-.9489-2.1054-1.5851-.8641-2.7575a1.0759,1.0759,0,0,1,1.6883.0873C65.4354,79.0279,64.0216,79.576,63.58,80.4552Z"/><path class="an" d="M75.7928,42.0314c.98.0348,1.8345-.018,1.7814,1.1073-.0361.7649-.5156,1.0985-1.2945,1.104-.8451.006-1.532-.1458-1.58-1.1578C74.6559,42.1654,75.39,42.1621,75.7928,42.0314Z"/><path class="ao" d="M55.2,7.36c.9468-.2806,1.0816.2147,1.1073.7941.0351.7913-.0189,1.5453-1.0917,1.5647a1.2368,1.2368,0,0,1-1.3626-1.08C53.6865,7.5087,55.0043,7.92,55.2,7.36Z"/><path class="ai" d="M.88,42.4773c.89-.1953,1.9139-.7688,2.4.3092.1839.4077.12,1.7659-.7144,1.8369C1.2588,44.7344,1.0917,43.524.88,42.4773Z"/><path class="ap" d="M36.0756,43.7859c-.22-.9711-1.5451-1.9521-.1531-2.76.3631-.2107,1.3438-.0878,1.4883.18C38.1155,42.5136,36.6415,42.8917,36.0756,43.7859Z"/><path class="f" d="M63.3625,44.6388c.2312,1.1271-.82,1.0865-1.37,1.3893a.8775.8775,0,0,1-1.3242-.8143A3.0227,3.0227,0,0,1,62.12,43.6326C63.05,43.1271,62.9346,44.2881,63.3625,44.6388Z"/><path class="t" d="M83.0043,45.3252c.03.65.0746,1.378-.809,1.44-1.053.0735-1.0585-.7769-1.1831-1.5188A1.009,1.009,0,0,1,82.013,43.943C82.7856,43.9288,82.9726,44.6407,83.0043,45.3252Z"/><path class="z" d="M103.2067,65.305c-.3108.94-.8146,1.6176-1.6073,1.5485a1.2518,1.2518,0,0,1-1.0275-1.4074,1.1634,1.1634,0,0,1,1.266-1.1577C102.5874,64.2992,102.845,64.9141,103.2067,65.305Z"/><path class="ae" d="M65.2941.0015a1.629,1.629,0,0,1-1.5765-1.4329c-.037-.4416.373-1.1493.9372-.92.7442.3028,1.737.5439,1.9458,1.4481C66.68-.5607,66.1112-.0073,65.2941.0015Z"/><path class="ab" d="M37.8441,75.3391c.5688.0885,1.4857-.2422,1.4784.67-.0089,1.1108-1.1914.9561-1.8941,1.226-.772.2966-1.16-.2189-1.1744-.9717C36.23,75.0246,37.2327,75.5162,37.8441,75.3391Z"/><path class="g" d="M77.3219,38.9545c-.2024-1.4879-1.0141-2.5935.5415-3.15.4873-.1743,1.1664-.1759,1.3937.4211C79.8214,37.7073,78.3466,37.8283,77.3219,38.9545Z"/><path class="ac" d="M34.2652,53.568c-.9033,1.0269-1.5675,2.11-2.9538,1.066a.8542.8542,0,0,1-.1021-1.3709C32.3612,51.9276,33.18,53.1474,34.2652,53.568Z"/><path class="i" d="M24.3818,3.9467a1.1221,1.1221,0,0,1-1.1442,1.2214c-.93.0727-1.2966-.6909-1.4743-1.3978-.1909-.76.3728-1.1219,1.0657-1.1922C23.8276,2.4767,23.9232,3.4113,24.3818,3.9467Z"/><path class="y" d="M93.6965,70.2419c-.687-.0761-1.3209-.34-1.2346-1.113a1.2932,1.2932,0,0,1,1.3362-1.1783c.5543.0669,1.4311.3378,1.4626,1.0566C95.3011,69.9294,94.3969,70.0367,93.6965,70.2419Z"/><path class="f" d="M54.5386,88.5877c-.13.7518-.5335,1.2421-1.3226.9929-.5413-.1711-1.4687-.2359-1.3342-1.0259a1.5165,1.5165,0,0,1,1.5661-1.3688A1.2964,1.2964,0,0,1,54.5386,88.5877Z"/><path class="l" d="M40.9374,69.8232a1.1434,1.1434,0,0,1-.9612,1.4224,1.4553,1.4553,0,0,1-1.5749-1.2438,1.4067,1.4067,0,0,1,1.18-1.57C40.3923,68.3631,40.6566,69.22,40.9374,69.8232Z"/><path class="e" d="M13.5024,33.8075c-.0634.6686-.5919.75-1.1186.7222-.8794-.046-1.7639-.3164-1.7579-1.3463.004-.6707.7888-.52,1.2652-.4916C12.6053,32.7347,13.4282,32.7138,13.5024,33.8075Z"/><path class="g" d="M16.0385,7.8031c.0061.7356-.296.9887-.9713.8262-.76-.1828-1.4921-.4914-1.4829-1.3558.0084-.7844.6294-1.55,1.36-1.43C15.88,5.9969,15.5233,7.2513,16.0385,7.8031Z"/><path class="w" d="M32.1482,48.8814c.7246-1.639,1.2685-2.5415,2.6172-2.0365a1.1055,1.1055,0,0,1,.6822,1.5618C34.6464,49.564,33.5242,48.5342,32.1482,48.8814Z"/><path class="k" d="M119.9358,30.4742c.5987.4613,1.4748.8414,1.842,1.5039.3533.6374-.4747,1.1046-1.0563,1.1872-1.031.1464-1.51-.71-1.8109-1.4742C118.682,31.1108,119.3189,30.8255,119.9358,30.4742Z"/><path class="u" d="M63.27,10.4545c-1.4385.7868-2.3731,1.8506-3.4678.49-.2131-.2649-.2711-1.0627-.1472-1.1272C60.7768,9.2328,61.7878,9.6609,63.27,10.4545Z"/><path class="v" d="M64.82,93.8043c-.3273-.0637-1.0384.1231-.8883-.7246s.4288-1.7039,1.422-1.9154a.8642.8642,0,0,1,1.0638.9106A1.4906,1.4906,0,0,1,64.82,93.8043Z"/><path class="m" d="M28.3479,10.8049a5.01,5.01,0,0,1-1.3912,2.867c-.9045-.5471-1.5183-1.6007-1.194-2.2754C26.1135,10.6668,27.3389,10.7437,28.3479,10.8049Z"/><path class="j" d="M66.7986,11.2535c.6818.39,1.5565.5528,1.3954,1.5362-.1061.6475-.4987,1.2463-1.2411,1.0728-.7125-.1665-1.4446-.6291-1.3213-1.49C65.7088,11.8335,66.0247,11.1573,66.7986,11.2535Z"/><path class="g" d="M60.4029,33.0838c-.5593-1.4573-1.8137-2.103-.7123-3.1456.3824-.3619,1.5049-.6227,1.6689-.422C62.3524,30.7315,61.0788,31.5207,60.4029,33.0838Z"/><path class="y" d="M106.9829,15.2116a1.8617,1.8617,0,0,1-1.2294-1.5461c-.24-.97.545-1.2455,1.31-1.3222.4774-.0479,1.2627-.0474.9928.6909C107.7923,13.7553,108.0767,14.8,106.9829,15.2116Z"/><path class="ac" d="M6.2229,17.3073a3.1591,3.1591,0,0,1-1.9844,1.4862c-.5973.1191-1.1618-.5113-1.0337-.9194.24-.7648.6752-1.6419,1.6813-1.6693A1.4285,1.4285,0,0,1,6.2229,17.3073Z"/><path class="ah" d="M64.539,17.1508c.9376.5034,1.66.892,1.5635,1.7806a1.1841,1.1841,0,0,1-1.31,1.1279c-.7855-.1058-1.4527-.6222-1.1748-1.5466A5.25,5.25,0,0,1,64.539,17.1508Z"/><path class="ai" d="M54.66,29.5948c-.7146-.1257-1.3782-.3987-1.3283-1.1647a1.4184,1.4184,0,0,1,1.3021-1.1872,1.2856,1.2856,0,0,1,1.4732.9546C56.236,29.1018,55.3265,29.325,54.66,29.5948Z"/><path class="aa" d="M109.8132,27.54c.1326.9285-.47,1.0247-1.1593,1.0222-.7257-.0026-1.5742.155-1.7728-.8421-.2267-1.1384.7314-1.0315,1.4-1.2068C109.1817,26.2767,109.7021,26.6011,109.8132,27.54Z"/><path class="ag" d="M60.9819,50.468c-.1212.5015.2724,1.3928-.7487,1.4136-.9411.0192-1.2878-.5982-1.2509-1.5057.03-.7381.2941-1.3526,1.0619-1.3669C60.91,48.9928,60.9924,49.7194,60.9819,50.468Z"/><path class="x" d="M51.9423,20.3361a1.5,1.5,0,0,1-1.5838,1.0917c-.6178-.0519-1.4328-.4036-1.3-1.04A2.0047,2.0047,0,0,1,51.0467,19.05C51.4794,19.0237,51.9659,19.5612,51.9423,20.3361Z"/><path class="i" d="M72.0493,19.7546A4.171,4.171,0,0,1,69.7364,22.25C69.4677,19.6408,69.4677,19.6408,72.0493,19.7546Z"/><path class="aq" d="M42.3963,22.9272c.6811-.0043,1.3734.103,1.228.98-.1076.6479-.1217,1.5242-1.2442,1.4516-.6355-.0411-1.0137-.22-.984-.8844C41.4273,23.7786,41.22,22.8939,42.3963,22.9272Z"/><path class="m" d="M62.7977,25.7229a1.6467,1.6467,0,0,1-1.583-1.3609c-.1055-.8126.6585-.9559,1.3258-.923.6128.03,1.4453-.1222,1.5829.7012C64.2777,25.0636,63.3348,25.2775,62.7977,25.7229Z"/><path class="x" d="M89.7365,47.6638c-.3971.5-.8081,1.103-1.4905.9939a1.3178,1.3178,0,0,1-1.2444-1.5488,1.1033,1.1033,0,0,1,1.2-.8712A1.7617,1.7617,0,0,1,89.7365,47.6638Z"/><path class="g" d="M82.4057,59.6814c.2773-.9169,1.1381-1.1066,1.8839-1.4219.5574-.2356.6979.1394.747.5949.0892.8259-.0887,1.5089-1.0449,1.6222A1.3514,1.3514,0,0,1,82.4057,59.6814Z"/><path class="u" d="M58.3211,23.3164H54.824C55.94,21.1044,56.978,20.5256,58.3211,23.3164Z"/><path class="j" d="M50.0479,61.7111a1.6179,1.6179,0,0,1-1.3543-1.523c-.0293-.6921.5693-1.0648,1.2722-1.0524a1.3164,1.3164,0,0,1,1.3559,1.046C51.4091,60.9638,50.7522,61.4262,50.0479,61.7111Z"/><path class="h" d="M38.1506,22.0089a1.2678,1.2678,0,0,1-1.1977,1.3974c-.818.1237-1.1027-.5715-1.2735-1.1422a1.1149,1.1149,0,0,1,.8976-1.4512C37.4241,20.7012,37.7624,21.5346,38.1506,22.0089Z"/><path class="ac" d="M36.9529,61.956a2.3427,2.3427,0,0,1-1.72,1.5118.8523.8523,0,0,1-.89-1.2692c.2765-.604.4516-1.6539,1.3646-1.5C36.1942,60.7805,36.5668,61.5421,36.9529,61.956Z"/><path class="n" d="M109.17,47.8189c-.0658.7019-.4718,1.4237-1.0479,1.4527-.7965.04-1.3063-.797-1.4867-1.4882-.2324-.8905.581-.9744,1.22-1.0146C108.5822,46.723,109.1034,47.0041,109.17,47.8189Z"/><path class="v" d="M32.3939,19.7975c-.673.7624-.8863,1.8193-1.9829,1.6458a.9691.9691,0,0,1-.8333-1.1662,1.8055,1.8055,0,0,1,1.8145-1.5281C31.7446,18.7674,32.0633,19.4317,32.3939,19.7975Z"/><path class="w" d="M49.83,26.3618c.0726.9045-.5954.9867-1.22,1.0607-.6327.0749-1.2961.1179-1.3166-.822-.0141-.6508-.0016-1.2748.9175-1.2585C48.9654,25.3554,49.7112,25.354,49.83,26.3618Z"/><path class="ar" d="M25.997,18.4425c-.38.5524-.8338,1.1076-1.548.89a1.3177,1.3177,0,0,1-1.0075-1.4695c.0881-.41.3916-1.1309,1.0682-.98A2.0892,2.0892,0,0,1,25.997,18.4425Z"/><path class="i" d="M100.4275,17.2544c-.3769.6677-.8765,1.25-1.6794,1.1856a1.1061,1.1061,0,0,1-1.1227-1.2725,1.3235,1.3235,0,0,1,1.4243-1.016A1.5544,1.5544,0,0,1,100.4275,17.2544Z"/><path class="ar" d="M2.1908,29.5535c-.3815.2794-.7367.738-1.1571.8088-1.0927.184-1.3048-.8643-1.7151-1.5386-.0552-.0907.4971-.7939.7893-.8093C1.049,27.9648,1.6139,28.641,2.1908,29.5535Z"/><path class="x" d="M72.6732,94.65c-.0021.8661-.6327,1.12-1.2443,1.186-.8793.0958-1.3063-.4971-1.4113-1.3117-.088-.6827.3534-.9619.9346-.9522A2.0814,2.0814,0,0,1,72.6732,94.65Z"/><path class="u" d="M95.0057,30.4883A1.9,1.9,0,0,1,93.42,29.0109c-.1331-.5872.2086-1.1374.8135-1.0018.787.1763,1.6962.5242,1.7664,1.4826C96.0236,29.8093,95.3314,30.18,95.0057,30.4883Z"/><path class="m" d="M57.1517,62.57c-.1491.5787-.31,1.2406-.9968.8715-.5765-.31-1.6951.0659-1.6718-1.07.0142-.69.43-1.3145,1.1976-1.0943C56.3089,61.4569,57.2136,61.584,57.1517,62.57Z"/><path class="as" d="M41.971,63.0459c.5476.1686,1.6593-.1992,1.5279.9323-.0857.7374-.8872,1.1407-1.7035,1.1561a1.2247,1.2247,0,0,1-1.3672-1.0633C40.34,63.0842,41.018,62.8479,41.971,63.0459Z"/><path class="f" d="M57.2186,40.87c-.2467,1.3242.3343,2.5022-.7218,3.17-.5764.3646-.8569-.4056-1.05-.8505C54.8515,41.8223,55.6655,41.3109,57.2186,40.87Z"/><path class="z" d="M62.8948,64.079a2.2879,2.2879,0,0,1-1.5895,1.9231c-.4478.21-1.0343-.2923-1.0172-.8313.03-.937.8774-1.375,1.55-1.8075C61.9858,63.2683,62.5662,63.8473,62.8948,64.079Z"/><path class="ab" d="M40.6017,28.8551c.4535.332,1.1306.6771.8584,1.2259-.3417.689-.8165,1.5384-1.799,1.4159a1.1565,1.1565,0,0,1-.6923-.9025A2.4342,2.4342,0,0,1,40.6017,28.8551Z"/><path class="ae" d="M49.6222,41.7181c-.4081-.15-.9315-.2586-.87-.775a2.3008,2.3008,0,0,1,1.5654-1.803c.5885-.2368,1.0869.4394.9941.8949A2.23,2.23,0,0,1,49.6222,41.7181Z"/><path class="i" d="M117.8463,56.5127c.8666.0919,1.5688.4141,1.5893,1.0472a1.4344,1.4344,0,0,1-1.5255,1.341,1.1575,1.1575,0,0,1-1.1427-1.24C116.7841,56.866,117.3789,56.6505,117.8463,56.5127Z"/><path class="at" d="M81.9214,11.1513a2.067,2.067,0,0,1-1.9482,1.1459.5768.5768,0,0,1-.5305-.8954c.3385-.6647.7642-1.4069,1.5508-1.4939C81.5666,9.8446,81.8582,10.4321,81.9214,11.1513Z"/><path class="k" d="M101.6262,31.4894a1.4067,1.4067,0,0,1-1.3764,1.0078c-.76-.0447-1.5279-.3979-1.3157-1.2684A1.888,1.888,0,0,1,100.2,30C100.9721,29.9647,101.2476,30.875,101.6262,31.4894Z"/><path class="m" d="M67.6988,65.5956c.5858.4825,1.4464.8946,1.4462,1.8042a.8143.8143,0,0,1-1.1639.7018c-.6514-.3413-1.4183-.7686-1.43-1.598A.9268.9268,0,0,1,67.6988,65.5956Z"/><path class="aa" d="M96.0308,9.3072a2.2876,2.2876,0,0,1-1.8868,1.3386.6331.6331,0,0,1-.6651-.849,2.4741,2.4741,0,0,1,1.6955-1.7046C95.52,8.01,96.1013,8.5677,96.0308,9.3072Z"/><path class="q" d="M45.6013.6111c-1.067-1.4371-1.76-2.2445-1.0733-3.3441.1531-.2453.9853-.4152,1.0826-.29C46.3353-2.0932,46.0629-1.0969,45.6013.6111Z"/><path class="r" d="M33.2751,68.9005a1.1145,1.1145,0,0,1-.7388-1.0589,1.66,1.66,0,0,1,1.4461-1.4707c.8274-.018,1.2548.8792,1.2078,1.6073C35.15,68.6068,34.5529,69.0456,33.2751,68.9005Z"/><path class="x" d="M90.128,7.1724a1.6478,1.6478,0,0,1-1.7152,1.3114c-.4849-.009-.8966-.2205-.6975-.7267.3084-.7841.7266-1.6483,1.6036-1.8439C89.8841,5.787,90.195,6.3717,90.128,7.1724Z"/><path class="au" d="M46.5333,33.7243A1.7952,1.7952,0,0,1,45.2939,32.26c-.1167-1.0766.5014-1.3265,1.396-1.1285.5283.1169,1.5514-.13,1.1937.9119C47.6605,32.6927,46.9846,33.1863,46.5333,33.7243Z"/><path class="v" d="M54.2864,66.7466c.4274,2.83-.5736,3.04-2.5785,1.7955A4.3756,4.3756,0,0,1,54.2864,66.7466Z"/><path class="m" d="M103.4551,77.9845c.3954.4705.9633.8387.96,1.2022-.0078.9737-.8473,1.402-1.6559,1.63-.2092.0589-.831-.4633-.8383-.73C101.8945,79.1057,102.8631,78.7874,103.4551,77.9845Z"/><path class="ar" d="M32.3229-.2066a1.2281,1.2281,0,0,1-1.19,1.3179,1.1576,1.1576,0,0,1-1.27-1.1355,1.2833,1.2833,0,0,1,1.3284-1.4237C31.635-1.3919,31.9868-.6,32.3229-.2066Z"/><path class="ab" d="M29.2149,4.1855c.6971-.0209.732.6679.9144,1.0512.4646.9762-.4106,1.4139-1.04,1.6643-.7579.3016-1.1893-.3992-1.239-1.0256C27.7814,5.0039,28.57,4.6368,29.2149,4.1855Z"/><path class="p" d="M37.0516,3.1032a.9976.9976,0,0,1-1.1083-.9805c.0814-.9493.8995-1.4039,1.7321-1.62a.6424.6424,0,0,1,.8175.7123A2.6069,2.6069,0,0,1,37.0516,3.1032Z"/><path class="ab" d="M58.3442,2.6259c-.0443.8791-.8187.6137-1.3959.6332-.65.022-1.3366.02-1.2035-.9657.1132-.8383.7306-.9335,1.3986-.9447C57.913,1.3358,58.3315,1.701,58.3442,2.6259Z"/><path class="aa" d="M74.018,34.5287c-.0534,1.06-.6844,1.2537-1.3048,1.3778-.6685.1338-1.3281.0036-1.3818-.823-.0493-.7592.2868-1.6646,1.0391-1.6571C72.9591,33.4322,73.54,34.1848,74.018,34.5287Z"/><path class="ab" d="M1.5843,1.8854A2.5356,2.5356,0,0,1,4.1691,3.7307c.0533.1832-.8727.9662-1.1425.8741C1.9368,4.2327,1.6772,3.2271,1.5843,1.8854Z"/><path class="av" d="M112.4892,34.2593a1.5594,1.5594,0,0,1,1.0536,1.3609,1.1262,1.1262,0,0,1-1.1172,1.2164c-.6.02-1.3231-.3294-1.2912-1.0635A1.6428,1.6428,0,0,1,112.4892,34.2593Z"/><path class="l" d="M98.7787,3.3972a1.8618,1.8618,0,0,1-1.613,1.1193c-.824.1579-1.0923-.4218-1.1641-1.1185-.1288-1.25.8983-.8827,1.513-1.0457C98.2767,2.15,98.7169,2.4809,98.7787,3.3972Z"/><path class="ae" d="M93.3791,35.7668c.0409.6911-.3476,1.224-.8518,1.1594-.8384-.1073-.99-.94-1.2014-1.664-.2869-.9828.5539-1.1722,1.0094-1.1192C93.193,34.2429,93.1447,35.1861,93.3791,35.7668Z"/><path class="v" d="M55.1135,48.6589c0,.71-.3715.8888-1.0267.7759-.6749-.1164-1.4036-.3439-1.4847-1.026-.1006-.8464.6611-.942,1.34-.9414A1.034,1.034,0,0,1,55.1135,48.6589Z"/><path class="z" d="M87.02,85.89a2.1221,2.1221,0,0,1,1.4891,1.4872c.145.4982-.3966.979-.919,1.0155-.8956.0626-1.3328-.5945-1.4534-1.371A1.0074,1.0074,0,0,1,87.02,85.89Z"/><path class="j" d="M110.6848.6646c.7006.0324,1.3817.4,1.3052,1.0085a2.0143,2.0143,0,0,1-1.1829,1.3334c-.7276.2446-1.0464-.5413-1.1921-1.1143C109.404,1.0627,110.0908.8649,110.6848.6646Z"/><path class="k" d="M61.7,4.6513c.4376-.3943.86-1.0883,1.3687-1.1593a1.3934,1.3934,0,0,1,1.4663,1.31c.0192.3012-.8619.8115-1.4063.959C62.4344,5.95,62.0214,5.3911,61.7,4.6513Z"/><path class="ab" d="M104.4838,5.9737c-.1633.726-.7154.7559-1.215.54-.622-.2682-1.5849-.42-1.2284-1.4586.14-.4079.4516-1.0717,1.1222-.7294A1.9952,1.9952,0,0,1,104.4838,5.9737Z"/><path class="l" d="M84.2942,24.6057c-.07.9872-.955,1.0336-1.5669,1.3021-.4459.1957-1.1706.2366-1.2553-.4476-.0976-.789.2521-1.4707,1.2344-1.4176C83.2752,24.0734,83.9967,23.7663,84.2942,24.6057Z"/><path class="ah" d="M86.1881,39.6778c-1.2753-.0026-2.3869.7149-3.0721-.5-.2821-.5.1306-1.0407.6559-1.2335C85.1168,37.451,85.616,38.3627,86.1881,39.6778Z"/><path class="ad" d="M30.0584,61.1017c-.7061-.677-1.5745-1.0187-1.6247-1.9941a.6772.6772,0,0,1,.8249-.7163,1.86,1.86,0,0,1,1.68,1.59C30.9678,60.3208,30.3815,60.7127,30.0584,61.1017Z"/><path class="h" d="M31.006,41.5855c-1.1653-.486-2.4041-.6629-1.8306-2.1977A1.0756,1.0756,0,0,1,30.5022,38.8C31.6357,39.326,31.049,40.3542,31.006,41.5855Z"/><path class="w" d="M106.4325-.9c-.8.9367-1.236,1.74-2.2124,1.6291-.7461-.085-.677-.702-.4593-1.1744.3135-.68.4225-1.7694,1.6182-1.3071A4.2555,4.2555,0,0,1,106.4325-.9Z"/><path class="aw" d="M21.3126,49.58a1.1391,1.1391,0,0,1-1.2516,1.1554,1.249,1.249,0,0,1-1.3291-1.1226c-.2081-1.029.5726-.9242,1.1955-.8787C20.5159,48.7776,21.2866,48.5935,21.3126,49.58Z"/><path class="ah" d="M12.4846,46.9717c.9338-.0508,1.9525-.8883,2.31.5792.13.533.2948,1.5726-.3739,1.6493C13.0125,49.3618,13.0549,47.9291,12.4846,46.9717Z"/><path class="l" d="M83.9168.5778c-.334-1.58.0588-2.4692,1.5449-2.6031.4128-.0372.9744.1066.9066.6012C86.1789-.0429,84.862-.08,83.9168.5778Z"/><path class="v" d="M83.8412,77.9c.7214.1278,1.1888.4009,1.0346.8476a2.03,2.03,0,0,1-1.7792,1.5537.8323.8323,0,0,1-.7136-1.1779A5.5376,5.5376,0,0,1,83.8412,77.9Z"/><path class="ax" d="M39.5178,51.5518c-.6147-.15-1.0275-.3026-.8751-.857.1966-.7154.5572-1.5248,1.2813-1.5961.5791-.0571,1.3477.7068,1.13,1.2622C40.837,50.9118,39.9879,51.2137,39.5178,51.5518Z"/><path class="j" d="M88.7063,27.9858c-1.0387.1631-1.072-.3736-1.1446-.91-.1142-.8445.2675-1.151,1.0674-1.0579.6171.0718,1.49.041,1.4468.8329C90.0327,27.65,89.1737,27.89,88.7063,27.9858Z"/><path class="ab" d="M36.2763,27.8412c.0166.8517-.7109,1.0509-1.2446,1.2579-.8209.3186-1.1078-.435-1.3108-1.0011-.1893-.5278-.0955-1.1629.6825-1.0231C35.0536,27.1917,35.9716,26.8265,36.2763,27.8412Z"/><path class="j" d="M73.7576,49.9321c-.645-.1947-1.1361-.6514-1.0108-1.28a5.0365,5.0365,0,0,1,.92-1.4927c.4663.3942,1.2151.7179,1.335,1.1987C75.1981,49.1459,74.33,49.49,73.7576,49.9321Z"/><path class="ai" d="M66.4585,72.5019a.8628.8628,0,0,1-.8862,1.0834c-1.26.0866-.7327-1.0251-.9347-1.6049a.7422.7422,0,0,1,.7347-1.0843C66.5205,70.8931,66.0623,72.0113,66.4585,72.5019Z"/><path class="ay" d="M76.0982,61.7774c.3861.0761,1.1118-.166,1.1208.59.0111.9363-.9091,1-1.5361,1.2375-.5639.2136-.9731-.0155-1.0418-.71C74.5319,61.7918,75.2392,61.7517,76.0982,61.7774Z"/><path class="r" d="M45.8826,51.053c1.2189.0633.68,1.0826.895,1.6415.2693.7-.0437,1.3478-.8563,1.1635-.7471-.1694-1.0554-.99-1.2119-1.6821C44.5015,51.2569,45.4335,51.3712,45.8826,51.053Z"/><path class="az" d="M40.6966,10.996c-.8637.0762-1.126-.5081-1.2679-1.152-.12-.5431-.0624-1.1467.6458-1.1693.7232-.0231,1.1249.5891,1.375,1.1653C41.7422,10.5144,41.1078,10.7181,40.6966,10.996Z"/><path class="e" d="M115.9582,62.522c.548.2354,1.5168.2273,1.4673,1.2214-.0459.9225-.9276.6439-1.4969.7335-.706.1112-1.2945-.04-1.2655-.9389C114.6874,62.7865,114.9927,62.315,115.9582,62.522Z"/><path class="j" d="M63.2257,84.1038c-1.1913,1.1719-1.8288,2.08-3.0517,1.6338-.52-.19-.2436-.6759-.0914-1.0579C60.6849,83.1691,61.7268,83.8944,63.2257,84.1038Z"/><path class="y" d="M98.6,71.8265a1.2657,1.2657,0,0,1,1.2746-1.5137c.7717-.0827.67.5892.7168,1.0751.076.7813-.0223,1.5773-.97,1.6211A.9743.9743,0,0,1,98.6,71.8265Z"/><path class="y" d="M23.2937,43.4273c-.0461.7642-.3144,1.4585-.85,1.2658a3.1817,3.1817,0,0,1-1.59-1.4342c-.2863-.5518.4034-1.021.8913-.92C22.4051,42.4747,23.2072,42.6819,23.2937,43.4273Z"/><path class="t" d="M54.2049,15.163c-.1756.4417-.5082.7985-.9283.6339-.7781-.3047-1.5643-.751-1.6623-1.6875-.0286-.2732.4435-.5988.6861-.9C52.9884,13.812,53.9272,14.1739,54.2049,15.163Z"/><path class="i" d="M33.0029,14.9839c-.6446-.0128-1.1633-.2242-1.2246-.8276-.0915-.9.5136-1.3528,1.325-1.3987a1.0477,1.0477,0,0,1,1.19.8088C34.4124,14.5066,33.6423,14.7461,33.0029,14.9839Z"/><path class="ao" d="M84.8521,12.1639c1.6.0173,2.7409-.8134,3.3787.5522.128.274-.3351,1.0977-.7156,1.2884C86.0134,14.7573,85.8958,13.2859,84.8521,12.1639Z"/><path class="i" d="M59.2956,56.9787a3.6034,3.6034,0,0,1-2.9562-.0742C57.4223,55.2649,58.327,54.4646,59.2956,56.9787Z"/><path class="u" d="M82.1663,66.6993a1.7651,1.7651,0,0,1-1.3042-2.2606c.066-.2709.8938-.666,1.0316-.56C82.9306,64.6753,82.4165,65.6181,82.1663,66.6993Z"/><path class="z" d="M73.7929,67.3586c.68.1693.8427.6592.9054,1.2173A1.2111,1.2111,0,0,1,73.6712,69.98c-.4379.0735-1.1351-.27-1.0412-.9226A2.2573,2.2573,0,0,1,73.7929,67.3586Z"/><path class="ba" d="M6.8455,29.8654A4.651,4.651,0,0,1,6.82,33.1077C4.385,32.1115,4.7922,31.1283,6.8455,29.8654Z"/><path class="x" d="M95.1164,49.2646c-.2841.4012-.3139,1.1584-1.0193.925-.67-.222-1.4-.5546-1.3736-1.4675.0146-.5.3542-.7034.8415-.6566C94.3346,48.1393,94.9793,48.3725,95.1164,49.2646Z"/><path class="f" d="M73.9306,14.6521c.0683,1.3664-1.0463.9079-1.5586,1.2815-.5759.42-1.082-.0168-1.04-.5959a1.6413,1.6413,0,0,1,1.5175-1.3631C73.1863,13.9154,73.6273,14.4482,73.9306,14.6521Z"/><path class="r" d="M76.4353,8.7611c-.3607.5691-.7267,1.1053-1.4841,1.0835a1.0836,1.0836,0,0,1-1.1187-.9466c-.07-.7166.4074-1.154,1.153-1.195C75.7565,7.6606,76.0425,8.2915,76.4353,8.7611Z"/><path class="ac" d="M20.23,15.3621c-.7465.5793-1.2013,1.2088-1.71,1.2566-.6167.0578-1.04-.6641-.997-1.281.0429-.6153.4308-1.2792,1.1913-1.0632A5.9587,5.9587,0,0,1,20.23,15.3621Z"/><path class="w" d="M118.4761,16.7041a1.7585,1.7585,0,0,1,1.6133,1.4222.7567.7567,0,0,1-.8241,1.0234,1.7114,1.7114,0,0,1-1.5562-1.33C117.6675,17.467,118.2279,17.0429,118.4761,16.7041Z"/><path class="ag" d="M101.0228,51.8616c-.1749.6573-.5639.8832-1.1671.5139-.4956-.3035-1.4607-.285-1.1976-1.1979.2389-.8291,1.0541-.515,1.648-.4781C101.0249,50.7443,101.1067,51.2714,101.0228,51.8616Z"/><path class="l" d="M93.0005,90.48c-.46-.0543-.9382-.0684-.8768-.6741a2.2548,2.2548,0,0,1,1.5855-1.7983c.1585-.0686.8388.4826.8491.7638C94.5954,89.7889,93.65,90.0405,93.0005,90.48Z"/><path class="n" d="M12.3991,19.6853a2.94,2.94,0,0,1-2.2126.8907c-.7318.0831-.6742-.6917-.5929-1.1532.1982-1.126,1.14-.6522,1.8-.7068A.8307.8307,0,0,1,12.3991,19.6853Z"/><path class="g" d="M12.1333-.4317C11.9428.4093,11.2265.684,10.52.8337A.659.659,0,0,1,9.6577.1509c.0656-.7449.3883-1.5521,1.0648-1.7361C11.3452-1.7545,11.8121-1.0678,12.1333-.4317Z"/><path class="ad" d="M33.7843,34.6675c-.2637.6678-.78.79-1.2453.4591-.5635-.4-1.3309-.8156-1.2526-1.623a.8824.8824,0,0,1,1.1676-.7279A2.0839,2.0839,0,0,1,33.7843,34.6675Z"/><path class="bb" d="M58.8805,76.4242c-.3452.6208-.8342,1.0755-1.5527.8908a1.1142,1.1142,0,0,1-.913-1.169.9146.9146,0,0,1,1.1339-.835A1.3258,1.3258,0,0,1,58.8805,76.4242Z"/><path class="k" d="M86.1289,65.7367c1.5479-.0893,2.3122.4346,2.5928,1.5889.0414.17-.423.6782-.6.6532C86.9383,67.8118,86.6333,66.879,86.1289,65.7367Z"/><path class="as" d="M68.9276,46.8763A1.902,1.902,0,0,1,67.2813,48.04c-.5231.0182-.622-.4979-.5263-.9162.1561-.682.2883-1.5416,1.2419-1.4034A1.1314,1.1314,0,0,1,68.9276,46.8763Z"/><path class="y" d="M66.9481,52.8126c-.4231.5708-.855,1.18-1.698,1.1478a.7142.7142,0,0,1-.6729-.8841,1.5945,1.5945,0,0,1,1.6865-1.14C66.7807,51.9844,66.9673,52.2987,66.9481,52.8126Z"/><path class="ao" d="M16.0305,42.8552c-.8616-.3128-.5694-1.0275-.5759-1.6194-.007-.6481.3512-1.0576.9788-.8345.6088.2164.5324.8182.4094,1.3609C16.7312,42.2551,16.7891,42.8618,16.0305,42.8552Z"/><path class="bc" d="M2.4957,80.6217c-2.599.2794-3.8054,1.71-3.6856,4.3371.0372.8176.1583,1.8838-1.0588,2.0033a2.2345,2.2345,0,0,1-1.9857-.9053c-.6858-.8978-.024-1.7064.3947-2.3728,2.1059-3.3523,1.8689-3.9584-2.0866-4.7178-.9912-.19-1.9382-.3825-2.1392-1.6019a1.52,1.52,0,0,1,.8835-1.5732c.8853-.583,1.8468-.914,2.5428.1411,1.1695,1.7732,2.7822,1.3267,3.9119.4465C.95,75.0721-.9886,73.9751-1.422,72.7958c-.3726-1.2631.9335-.7124,1.286-1.1921C3.4447,69.6617,3.5212,72.94,4.57,74.7683a28.4908,28.4908,0,0,0-1.7447,5.5274C2.7169,80.4053,2.6063,80.5135,2.4957,80.6217Z"/><path class="bd" d="M4.2688,54.0507,9.612,51.9989c-.3024,1.9023,2.2585,4.2592-1.3174,5.2929-2.9044.84-3.4528-1.2428-3.927-3.3423Z"/><path class="bd" d="M7.6683,83.0856c-2.8392,1.5227-4.4629.49-5.1726-2.4641l-.0625.0412c.9363-1.546,2.0173-2.6747,3.9419-1.3676l1.8887,2.7526A.76.76,0,0,1,7.6683,83.0856Z"/><path class="be" d="M4.3676,53.95c-.7288-.1814-1.1455.4458-1.7214.6542-.8.2894-1.6509,1.644-2.3973.5984A3.137,3.137,0,0,1,.384,51.3386c.9421-1.1642,1.9064-.5974,2.7237.1717.7061.6644,2.2582,1.02,1.1634,2.5391Z"/><path class="bf" d="M33,104.7044l.0252-.72c1.3517.2368,2.7792-.0993,4.07.6576,1.06.6214,1.7807,1.417,1.0369,2.5794a1.86,1.86,0,0,1-3.025.27A17.2317,17.2317,0,0,1,33,104.7044Z"/><path class="ab" d="M6.3751,79.2951c-1.6824-.6077-2.7426.5807-3.9419,1.3676.2786-2.1223-.7529-4.72,2.1371-5.8944l1.0259.6388c.9962.701.5045,1.8285.7829,2.7353Z"/><path class="bg" d="M54.1859,115.9854a9.7267,9.7267,0,0,1-1.7249-3.4115,1.6818,1.6818,0,0,1,1.1859-2.034,2.1012,2.1012,0,0,1,2.4117.3771c.5992.6716.2968,1.3927-.126,2.0781-.6077.9849-1.1778,1.993-1.7628,2.9911Z"/><path class="bh" d="M120.6366,113.8541c1.3679.0814,1.8064,1.1232,1.9325,2.1692.1865,1.5475-1.1809,1.9946-2.256,2.2017-1.2662.244-1.4436-1.0376-1.6187-1.9074C118.3966,114.8388,119.4539,114.2672,120.6366,113.8541Z"/><path class="bi" d="M13.1915,74.9031c.8393,1.3888,3.2009,2.0736,1.6363,4.2039a1.54,1.54,0,0,1-2.4939.0034C10.7149,77.4071,12.2333,76.2869,13.1915,74.9031Z"/><path class="bj" d="M68.9605,108.54a2.0474,2.0474,0,0,1,2.0123,2.1308,1.6738,1.6738,0,0,1-1.7479,1.8962c-1.527.0114-2-1.4427-2.2338-2.3916C66.76,109.2372,67.9235,108.6481,68.9605,108.54Z"/><path class="bk" d="M19.3491,85.0951a2.3406,2.3406,0,0,1-1.74,2.3365c-1.2686.25-1.9179-.9854-2.0507-1.9888a2.2081,2.2081,0,0,1,1.6085-2.1969C18.4124,83.0178,18.6261,84.5661,19.3491,85.0951Z"/><path class="bl" d="M7.6683,83.0856l.5955-1.0379c.81-.2527,1.6112-.5389,2.4321-.7485a1.5436,1.5436,0,0,1,1.89.8448c.3784.6827.0129,1.2111-.2042,1.8194-.3943,1.1047-1.184.774-1.8474.5142C9.5483,84.0914,8.6207,83.557,7.6683,83.0856Z"/><path class="bm" d="M78.9673,107.074a2.73,2.73,0,0,1-2.0168,2.0738,1.8781,1.8781,0,0,1-1.976-1.701,2.223,2.223,0,0,1,1.6745-2.1623C77.8325,105.1086,78.1823,106.4911,78.9673,107.074Z"/><path class="bn" d="M22.9036,89.6891c-.9436-.24-1.87-.7484-1.6005-1.86a2.1829,2.1829,0,0,1,2.2836-1.79,1.9445,1.9445,0,0,1,1.5188,2.1527C24.9624,89.3349,23.9453,89.5638,22.9036,89.6891Z"/><path class="bl" d="M8.0338,69.4037c-.019-.9617-.1693-1.9822.9655-1.6807,1.0344.2747,2.4572.5434,2.437,2.049-.0169,1.2583-.9192,1.7919-2.1514,1.7868C7.3365,71.5508,8.8037,69.7843,8.0338,69.4037Z"/><path class="bh" d="M20.5736,95.635a1.9412,1.9412,0,0,1-1.8844-1.9773c-.1051-1.1411.582-1.5142,1.5894-1.4571,1.0833.0615,2.3024.1028,2.4049,1.5365C22.794,95.2821,21.0423,94.8038,20.5736,95.635Z"/><path class="bi" d="M100.9077,98.0316c-.978-1.413-2.61-2.39-.7827-3.9785a1.2464,1.2464,0,0,1,1.9473.2109C103.6536,96.01,102.0516,96.86,100.9077,98.0316Z"/><path class="bo" d="M79.3264,98.0466a3.02,3.02,0,0,1,1.23,2.6982c-.1512.8011-.5384,1.94-1.518,1.6452a2.6181,2.6181,0,0,1-1.793-2.4522C77.239,98.7577,78.3926,98.5648,79.3264,98.0466Z"/><path class="bp" d="M53.2147,104.6073c-.4878,1.146-1.7349,1.4618-2.767,1.6882-1.0826.2375-1.2511-.8675-1.1882-1.7118.0806-1.0816.57-1.9082,1.8391-1.4726C51.8883,103.3822,53.1833,103.0076,53.2147,104.6073Z"/><path class="bg" d="M6.3791,78.1424c-2.0089-.4107-.321-1.8811-.7829-2.7353.4658-.8487.8717-1.796,2.1422-1.4153A1.72,1.72,0,0,1,8.911,75.3783c.3165,1.2616-.5137,1.691-1.4476,2.0924A8.2335,8.2335,0,0,0,6.3791,78.1424Z"/><path class="bq" d="M108.7167,117.1706a2.9931,2.9931,0,0,1-2.3753,1.94c-1.0322.081-1.5569-.8244-1.6442-1.6659a1.3482,1.3482,0,0,1,1.6168-1.5344C107.1924,116.0291,108.284,116.0251,108.7167,117.1706Z"/><path class="bg" d="M13.6636,55.829A1.8649,1.8649,0,0,1,15.59,57.6222c.1716,1.05-.4223,1.5309-1.4671,1.5554-1.133.0265-2.403-.2164-2.5116-1.3657C11.5115,56.7523,12.7646,56.2434,13.6636,55.829Z"/><path class="bo" d="M82.78,106.5044a3.3924,3.3924,0,0,1,1.4773,2.7153c.1058,1.0363-.7761,1.5409-1.7169,1.3676a2.0376,2.0376,0,0,1-1.6585-2.1083C80.8978,107.4018,81.9,106.9561,82.78,106.5044Z"/><path class="br" d="M28.8766,87.4965c.9233.64,1.8661,1.3874,1.8527,2.4727a1.7567,1.7567,0,0,1-1.9351,1.6726c-1.0674-.0568-1.347-.9449-1.252-1.8472A2.8565,2.8565,0,0,1,28.8766,87.4965Z"/><path class="bk" d="M4.8031,87.62a2.4,2.4,0,0,1-2.5119,1.8191c-.877-.0333-1.1857-1.1851-1.0439-2.0177a1.562,1.562,0,0,1,2.0608-1.4442C4.1445,86.2074,4.9049,86.6554,4.8031,87.62Z"/><path class="br" d="M40.7775,99.8857a1.807,1.807,0,0,1-1.7963,1.8383c-.6868.0434-1.5975-.1419-1.4074-1.2154.174-.9823.0385-2.3885,1.3493-2.527C39.9485,97.8733,40.3087,99.0831,40.7775,99.8857Z"/><path class="bs" d="M77.2409,112.8047c-1.2637.8446-2.0139,2.5917-3.6806,1.1166a1.3479,1.3479,0,0,1-.0527-2.217C75.1251,110.2069,75.945,111.8119,77.2409,112.8047Z"/><path class="bt" d="M64.87,104.0331a1.9382,1.9382,0,0,1-1.5545-2.0686,1.6143,1.6143,0,0,1,1.7441-1.5656c1.1656-.027,1.728.84,1.5232,1.9622C66.4306,103.1939,66.1292,104.0828,64.87,104.0331Z"/><path class="bs" d="M60.5127,112.0241c.77.3865,1.5787.871,1.7038,1.6839a2.4583,2.4583,0,0,1-1.5229,2.5676c-.84.3209-1.4517-.8249-1.6162-1.57C58.8229,113.5524,59.685,112.7633,60.5127,112.0241Z"/><path class="bk" d="M29.1584,75.672c-.38,1.0325-.8309,1.9245-1.9828,1.9608-1.12.0353-1.5266-.8729-1.5132-1.7347.0194-1.2544,1.2585-1.3853,2.1169-1.56C28.654,74.1593,29.0436,74.9162,29.1584,75.672Z"/><path class="bu" d="M116.37,113.965c-.2177,1.0268-1.01,2.141-1.7031,2.0825-.9969-.0843-1.6343-1.2658-1.6273-2.3944a1.331,1.331,0,0,1,1.4266-1.3983A1.7844,1.7844,0,0,1,116.37,113.965Z"/><path class="bs" d="M58.4668,106.3531a2.2251,2.2251,0,0,1-1.98,1.8378,1.4869,1.4869,0,0,1-1.8741-1.3192c-.164-1.3615.9909-1.8958,1.999-2.0542C57.5129,104.676,58.0006,105.6334,58.4668,106.3531Z"/><path class="bv" d="M17.7515,91.4854a4.05,4.05,0,0,1-2.9428,1.51,1.1682,1.1682,0,0,1-1.4467-1.2636c-.003-1.0829.6584-2.0569,1.6525-1.9171C15.93,89.9432,16.7391,90.8309,17.7515,91.4854Z"/><path class="bt" d="M5.4433,67.1064A2.5062,2.5062,0,0,1,3.4024,68.9a1.6662,1.6662,0,0,1-1.6373-1.632,1.89,1.89,0,0,1,1.7533-1.59C4.5494,65.538,4.8627,66.5258,5.4433,67.1064Z"/><path class="bu" d="M55.1649,98.8687a1.614,1.614,0,0,1-1.9,1.0606,1.7473,1.7473,0,0,1-1.7609-1.9041,1.38,1.38,0,0,1,1.5911-1.2493C54.5177,96.8157,54.3746,98.3127,55.1649,98.8687Z"/><path class="bw" d="M88.8688,116.9825a2.5485,2.5485,0,0,1-2.2233,1.6415,1.5688,1.5688,0,0,1-1.3924-1.8517c.0828-.7062.6442-1.5942,1.4512-1.4454A2.7489,2.7489,0,0,1,88.8688,116.9825Z"/><path class="bv" d="M46.7264,102.3489a1.6689,1.6689,0,0,1-1.6063,1.6457,1.7858,1.7858,0,0,1-1.9733-1.6423,1.84,1.84,0,0,1,2-1.6414A1.5824,1.5824,0,0,1,46.7264,102.3489Z"/><path class="bt" d="M111.261,91.9766c-.3474,1.2083-1.3109.8769-2.1029.9-1.0147.0295-1.6728-.4958-1.6244-1.5114.0436-.9166.6133-1.764,1.6052-1.52A3.1733,3.1733,0,0,1,111.261,91.9766Z"/><path class="bp" d="M9.3419,91.7216c-.7935-.6895-2.1312-.7165-1.8973-1.9763.2033-1.0956,1.1736-1.3762,2.2032-1.3742a1.1823,1.1823,0,0,1,1.3392,1.3622C10.9564,90.8652,10.14,91.2766,9.3419,91.7216Z"/><path class="bw" d="M17.8016,71.722a2.7176,2.7176,0,0,1-2.0461,1.5159,1.4,1.4,0,0,1-1.5077-1.6438A1.4643,1.4643,0,0,1,15.9626,70.12C16.8912,70.256,17.2714,71.1051,17.8016,71.722Z"/><path class="bk" d="M84.5729,100.8029c.9445.485,1.8109,1.0609,1.9573,2.05a1.618,1.618,0,0,1-1.4925,1.75c-1.0034.1285-1.454-.884-1.6534-1.6555C83.1383,101.9947,84.0816,101.485,84.5729,100.8029Z"/><path class="bn" d="M121.2969,81.8433a1.67,1.67,0,0,1-1.4938,1.4748,2.176,2.176,0,0,1-2.2624-1.4849c-.2793-.9891.889-1.5712,1.5883-1.6627C120.15,80.0371,120.7662,81.0071,121.2969,81.8433Z"/><path class="bx" d="M48.7288,95.9645c-.17,1.299-.8888,1.9853-1.7382,1.923a1.7492,1.7492,0,0,1-1.6214-1.7417c.0237-.8789.5221-1.8653,1.4487-1.8177C47.7781,94.3774,48.3311,95.3393,48.7288,95.9645Z"/><path class="bm" d="M116.6348,93.7152c-.16.7878-.2092,1.8094-1.3519,1.7882-1.1261-.0209-1.6508-.8171-1.7232-1.9157-.0541-.8223.0226-1.4777,1.122-1.4706S116.5738,92.4028,116.6348,93.7152Z"/><path class="bt" d="M115.0068,99.449c-.5886.8348-1.0253,1.9046-2.0647,1.77a1.66,1.66,0,0,1-1.5181-1.7377,1.4922,1.4922,0,0,1,1.608-1.2537A2.2385,2.2385,0,0,1,115.0068,99.449Z"/><path class="bs" d="M36.9233,92.1777A1.493,1.493,0,0,1,35.39,93.5836c-1.4483-.1271-1.6711-1.43-1.8192-2.564-.1-.7682.6-.8009,1.1011-.62C35.6106,90.7391,36.8466,90.7849,36.9233,92.1777Z"/><path class="bk" d="M88.3053,108.4877c1.3442,1.1937,2.7513,1.9754,1.4548,3.6223-.6179.785-1.3935.4024-1.9727-.135C86.1674,110.4722,88.2806,109.8663,88.3053,108.4877Z"/><path class="bw" d="M109.2981,113.5729c-.8982-.518-1.9857-1.131-2.141-2.122-.1234-.7874.848-1.4357,1.8008-1.31,1.1941.1572,1.4336,1.0484,1.3449,2.1039C110.2482,112.8931,110.1844,113.5112,109.2981,113.5729Z"/><path class="bx" d="M44.8126,88.1166a1.98,1.98,0,0,1-1.51,1.8387A1.7572,1.7572,0,0,1,41.55,88.17a1.7973,1.7973,0,0,1,1.6334-1.6673C44.0528,86.4321,44.6279,87.2141,44.8126,88.1166Z"/><path class="bu" d="M96.6685,113.1454c-.4814.85-1.021,1.8074-2.0408,1.6847a2.1532,2.1532,0,0,1-1.5229-1.3983c-.0764-1.1092.982-1.5914,1.9347-1.558A1.76,1.76,0,0,1,96.6685,113.1454Z"/><path class="bx" d="M120.9862,96.868c-.7785.0216-1.65.0542-1.6066-1.0355a1.74,1.74,0,0,1,1.6928-1.6611,1.8081,1.8081,0,0,1,1.985,1.7252C123.0484,96.9483,121.798,96.7479,120.9862,96.868Z"/><path class="bn" d="M108.6119,97.6105c-.23.9283-.3545,2.0384-1.2324,1.746a3.6669,3.6669,0,0,1-1.96-1.98c-.2587-.6639.727-1.359,1.3822-1.4575C108.1121,95.7219,108.0442,97.0969,108.6119,97.6105Z"/><path class="bd" d="M111.3307,87.1892c-1.0878.0258-1.6582-.4521-1.7059-1.2676a1.8118,1.8118,0,0,1,1.4407-2.1233,1.5825,1.5825,0,0,1,1.7813,1.4322C113,86.3687,111.8716,86.6762,111.3307,87.1892Z"/><path class="by" d="M43.3851,93.8918a2.2758,2.2758,0,0,1-1.8319,1.5154,1.5486,1.5486,0,0,1-1.7765-1.422A1.39,1.39,0,0,1,41.05,92.4447C42.059,92.41,42.6945,93.2442,43.3851,93.8918Z"/><path class="bp" d="M27.6633,81.9758c-.5432.8795-1.065,1.4432-1.87,1.392A1.6419,1.6419,0,0,1,24.07,81.807c.02-.8147.735-1.8494,1.5566-1.6351C26.4211,80.3792,27.0134,81.3627,27.6633,81.9758Z"/><path class="bz" d="M111.0064,104.1406c.5928.386,1.895.1007,1.8255,1.2214-.0645,1.04-1.2759,1.5561-2.0632,1.7172-.923.1889-1.37-.85-1.3256-1.747A1.187,1.187,0,0,1,111.0064,104.1406Z"/><path class="bx" d="M117.0488,109.3716a2.0966,2.0966,0,0,1-1.8369-1.6145c-.1356-.8177.7531-1.2691,1.4731-1.3126a1.7413,1.7413,0,0,1,2.0075,1.624C118.7083,108.7718,117.8089,109.1818,117.0488,109.3716Z"/><path class="bz" d="M19.1789,81.2452c-1.2419.2122-1.3643-.4018-1.2388-1.281.1229-.8609.2031-1.8747,1.3433-1.7523s1.4353,1.2014,1.4435,2.1533C20.7368,81.5134,19.675,81.0876,19.1789,81.2452Z"/><path class="ca" d="M98.78,103.0416c-.81-.16-1.764-.5877-1.6841-1.2509.1111-.9214,1.1474-1.4647,2.034-1.6775.7472-.1794,1.1275.5834,1.13,1.2048A1.6816,1.6816,0,0,1,98.78,103.0416Z"/><path class="bk" d="M120.7158,101.8345a2.0309,2.0309,0,0,1-1.8408,1.5694,1.2379,1.2379,0,0,1-1.2827-1.202c-.011-.8734.4051-1.8853,1.3094-1.9792C119.7858,100.131,120.1926,101.1729,120.7158,101.8345Z"/><path class="bs" d="M66.8679,118.3562c-.8974-.2113-1.7551-.8069-1.8641-1.5433-.1248-.8436.8032-1.5208,1.645-1.5067a1.9888,1.9888,0,0,1,1.8925,1.4426C68.6218,117.522,67.73,118.1111,66.8679,118.3562Z"/><path class="bp" d="M31.3083,85.497A1.8071,1.8071,0,0,1,29.83,83.65a1.1253,1.1253,0,0,1,1.5107-1.1545c.7368.1968,1.8719.2812,1.6917,1.45A1.7411,1.7411,0,0,1,31.3083,85.497Z"/><path class="bt" d="M72.525,105.0126c-.6925.6326-1.23,1.6353-2.2483,1.61A1.09,1.09,0,0,1,69.4,105.174c.3015-.7412.6575-1.7507,1.65-1.6545A1.7457,1.7457,0,0,1,72.525,105.0126Z"/><path class="bw" d="M104.733,106.021c-.7174-1.2782-1.815-2.2928-.7012-3.6562.5472-.67,1.1128-.4147,1.61.1389C106.8894,103.8927,105.917,104.8111,104.733,106.021Z"/><path class="cb" d="M22.7581,73.8867c-.194.5593-.1231,1.4536-1.117,1.125-.793-.2622-1.89-.6192-1.9455-1.424-.0671-.9655,1.0187-1.3242,1.8792-1.27A1.2337,1.2337,0,0,1,22.7581,73.8867Z"/><path class="bw" d="M90.6243,103.9088c.7959.4184,1.992.4356,2.0416,1.3509.05.9192-.8978,1.3984-1.8261,1.4711a1.0981,1.0981,0,0,1-1.2674-1.1454C89.5431,104.8239,89.721,104.0894,90.6243,103.9088Z"/><path class="bp" d="M117.2887,86.4106c.9945-.0016,1.5422.4053,1.513,1.0928a2.4381,2.4381,0,0,1-1.68,2.0971c-.6421.211-1.3313-.76-1.4353-1.4344C115.4892,86.8862,116.9084,87.0113,117.2887,86.4106Z"/><path class="bd" d="M92.6968,100.9484c-.7769-.4587-1.4579-.9985-1.2127-2.0114.1863-.7693.7192-1.4772,1.5546-1.32.8139.1535,1.7449.7712,1.4866,1.7063A2.2645,2.2645,0,0,1,92.6968,100.9484Z"/><path class="br" d="M82.0145,114.8476c-.293.9869-.333,2.0347-1.4036,2.0744-.8874.0329-1.2319-.9118-1.3049-1.5785a1.4669,1.4669,0,0,1,1.5529-1.6264C81.6028,113.6934,81.7765,114.4313,82.0145,114.8476Z"/><path class="bn" d="M101.956,115.9884c-.2323.6752-.4764,1.5624-1.3135,1.5343-.8014-.027-1.273-.878-1.3217-1.611a1.5538,1.5538,0,0,1,1.54-1.7259C101.4908,114.2221,101.9186,115.1394,101.956,115.9884Z"/><path class="bn" d="M60.173,109.152c1.5317-1.38,2.122-2.6876,3.5694-1.7521a1.1585,1.1585,0,0,1,.3787,1.6868C62.9852,110.5583,61.918,109.264,60.173,109.152Z"/><path class="br" d="M39.3521,86.1368c-.6223.4934-1.1847,1.2345-1.8959,1.4282-.8706.237-1.1831-.7279-1.3727-1.3939a1.1554,1.1554,0,0,1,1.17-1.5073C38.1506,84.6019,38.79,85.24,39.3521,86.1368Z"/><path class="cc" d="M104.0128,108.9694a1.3574,1.3574,0,0,1-1.0166,1.5957c-.9132.185-1.3808-.62-1.5407-1.3361a1.3384,1.3384,0,0,1,1.2026-1.6077C103.5219,107.5293,103.7111,108.47,104.0128,108.9694Z"/><path class="cd" d="M95.5452,107.54c.4648-.7027.9013-1.5452,1.8635-1.486.7481.046,1.5607.5839,1.345,1.3969a1.86,1.86,0,0,1-1.951,1.28A1.3335,1.3335,0,0,1,95.5452,107.54Z"/><path class="ce" d="M22.3992,119.6443c-1.7971-.1184-2.2122-1.3985-1.3507-3.0372a5.1283,5.1283,0,0,0,1.0091-2.946c-.0678-.6425.57-1.64-.66-1.79a3.34,3.34,0,0,0-2.4865.3641c-.8343.5869-.6648,1.2362-.2467,1.9411,1.1382,1.9191.1283,2.9946-1.5041,3.8014-1.3557.67-1.8846-.3019-2.5109-1.2367-1.2117-1.8086-.24-2.8764,1.28-3.5391,1.2107-.5279,1.1437-1.1854.9406-2.2637-.1821-.9668-.6562-2.2781.62-2.8876a2.7034,2.7034,0,0,1,3.18.8494c.7645,1.6323,1.8677,1.3692,3.1326,1.3967a2.2778,2.2778,0,0,1,2.2894,1.4148,1.5962,1.5962,0,0,1-.8485,2.3686c-1.413.7321-.5781,1.8633-.63,2.8422C24.5466,118.2017,24.7335,119.6617,22.3992,119.6443Z"/><path class="ce" d="M7.3431,111.464c-.0913,1.431-1.0914,1.8639-2.1072,2.2477-1.0049.38-1.9192.3138-2.4034-.8187-.6519-1.5243-1.6544-2.2309-3.2824-1.4551-1.4679.7-1.186,1.8857-.6736,3.0175.4838,1.0687.3615,2.0656-.7154,2.4023-.93.2906-2.0714,1.0889-3.0222.1614a2.2343,2.2343,0,0,1-.2121-2.9583,14.7307,14.7307,0,0,0,2.4765-5.431c.4922-1.703,2.0266-3.0509,3.5735-.5062a2.1182,2.1182,0,0,0,3.0214.8891C6.688,107.8258,6.6235,110.2147,7.3431,111.464Z"/><path class="cf" d="M13.1326,113.6371c-.27.415-.4919,1.1489-.976,1.429-1.6549.9574-2.1474,2.0277-1.3355,3.9292.53,1.2409-.4606,2.2076-1.6956,2.6933a1.8722,1.8722,0,0,1-2.4411-.9659c-.641-1.0834-.9079-2.4749.4113-3.1067,1.936-.9271,1.8284-2.0587,1.339-3.855-.4845-1.7784,1.1455-2.9684,2.547-3.0885C12.3152,110.5583,12.8774,112.1344,13.1326,113.6371Z"/><path class="e" d="M4.838,117.0289c-.0536,1.648-.792,2.52-2.3357,2.6067-1.5368.086-2.1294-.8406-2.0816-2.2a3.033,3.033,0,0,1,3.1823-2.9645C5.1953,114.4223,4.169,116.3314,4.838,117.0289Z"/><path class="e" d="M-1.4635,103.0983c-.1773-1.256,1.0778-1.4515,2.2481-1.61a1.8608,1.8608,0,0,1,2.2548,1.7449,2.368,2.368,0,0,1-2.3022,2.5955C-.5587,105.9585-1.3065,104.9008-1.4635,103.0983Z"/><path class="as" d="M7.138,103.3055c1.4684.195,1.5607,1.6889,1.84,2.6139.4535,1.5007-1.2044,1.5773-2.0769,1.854-1.4945.4741-1.7773-.7361-1.92-1.87C4.7868,104.3565,6.0011,103.94,7.138,103.3055Z"/><path class="ao" d="M14.9045,108.0372c-.1318,1.256-.7956,1.8656-1.9339,1.8407-1.2132-.0266-2.19-.5411-2.0518-1.9189.1051-1.0448.6562-2.453,1.7183-2.2571A2.705,2.705,0,0,1,14.9045,108.0372Z"/><path class="i" d="M36.5439,117.6548c-.8479-.3125-1.6265-.7935-1.483-1.7888.1525-1.0578.5869-2.2005,1.9473-2.0071.8052.1144,1.6813.9136,1.6038,1.6822A2.3643,2.3643,0,0,1,36.5439,117.6548Z"/><path class="ah" d="M10.7275,99.54c-.2837.7935-.7269,1.3281-1.6341,1.2353a2.1006,2.1006,0,0,1-1.9477-1.82c-.11-1.3669,1.2078-.78,1.9127-.8654C10.0523,97.9693,10.6114,98.5718,10.7275,99.54Z"/><path class="n" d="M4.5863,97.5931a1.493,1.493,0,0,1-1.7607,1.2475c-.9994-.0691-1.0846-.7852-1.06-1.5852.0258-.8481.3136-1.5023,1.2642-1.4013A1.5468,1.5468,0,0,1,4.5863,97.5931Z"/><path class="a" d="M44.0607,58.2667a3.1843,3.1843,0,0,0-2.9424,2.0422,3.1438,3.1438,0,0,0,.9809,3.5113,3.2542,3.2542,0,0,0,3.6683.2646,3.1284,3.1284,0,0,0,1.463-3.2717A3.2438,3.2438,0,0,0,44.0607,58.2667Z"/><path class="a" d="M66.0832,44.1913a3.2532,3.2532,0,0,0,3.6678.2647,3.1283,3.1283,0,0,0,1.4631-3.2716,3.2437,3.2437,0,0,0-3.17-2.5464A3.1845,3.1845,0,0,0,65.1019,40.68,3.143,3.143,0,0,0,66.0832,44.1913Z"/><path class="a" d="M68.0442,65.4645a3.1848,3.1848,0,0,0-2.9423,2.0421,3.143,3.143,0,0,0,.9813,3.5112,3.2534,3.2534,0,0,0,3.6678.2647,3.1282,3.1282,0,0,0,1.4631-3.2716A3.2438,3.2438,0,0,0,68.0442,65.4645Z"/><path class="a" d="M77.4451,55.3276A16.9478,16.9478,0,0,0,61.7065,52.76a17.4427,17.4427,0,0,0-3.4274,1.56c-.628-10.4-.788-15.6189-.8063-25.87-.0075-4.0216-6.2581-4.0289-6.2511,0,.0217,12.0832.2568,19.1818,1.1919,31.4108.3133,4.1022.61,8.2084,1.1925,12.2692a124.36,124.36,0,0,0,2.75,14.9978c.9005,3.9187,6.9286,2.26,6.0272-1.6618-2.296-9.9908-2.6969-13.3319-3.567-23.6824a11.4887,11.4887,0,0,1,4.5525-2.9964c2.9762-1.0648,7.042-1.063,9.6568.96C76.1683,62.1789,80.6238,57.7866,77.4451,55.3276Z"/></g></svg>