<svg xmlns="http://www.w3.org/2000/svg" viewBox="0 0 509.1012 484.9591"><defs><style>.a{fill:#3addbe;}</style></defs><path class="a" d="M496.687,484.9591a248.5466,248.5466,0,0,1-54.417-6.84c-29.6084-6.9419-72.27-22.5171-107.3721-57.2974-45.0878-44.6758-67.0048-109.186-65.1416-191.7383C271.269,162.06,252.2739,110.2491,213.2983,75.09,174.4263,40.0226,122.0356,27.5851,84.93,23.3268c-40.8721-4.6924-72.7979-.7793-73.1143-.74A10.4978,10.4978,0,0,1,9.1685,1.7589c1.3808-.1763,34.3056-4.2529,77.5644.6416,57.7939,6.5371,106.3926,26.2544,140.541,57.0205,43.7754,39.4385,65.1309,96.6807,63.4727,170.1362-1.7256,76.461,18.0478,135.7417,58.7734,176.1954,31.4463,31.2368,70.0215,45.3891,96.8447,51.7607,29.4688,7,51.71,6.4409,51.9248,6.4331a10.498,10.498,0,0,1,.6534,20.9858C498.7808,484.9371,498.0063,484.9591,496.687,484.9591Z"/></svg>