<svg xmlns="http://www.w3.org/2000/svg" viewBox="0 0 255.1181 120.3358"><defs><style>.a{fill:#ffc543;}.b{fill:none;}.c{fill:#0d1e47;}.d{fill:#ff7155;}</style></defs><path class="a" d="M244.21,97.8409c-6.2034.0193-12.455.9472-18.6612,1.2532-6.1238.3021-12.2484.5714-18.3677.9818-6.0859.4083-12.168.8938-18.258,1.22-2.8565.1528-5.72.1837-8.5741.3624-.1625.01-.3314.0252-.4987.0386.4146-.0876.8243-.173,1.2162-.2612,3.2685-.7348,6.4934-1.7006,9.7591-2.4588,7.1778-1.6664,14.6148-3.7579,21.9435-4.1954,2.3263-.1393,2.36-4.2437.0179-4.1039-9.5852.5744-19.2653-.0739-28.8677.0568-9.8049.1334-19.61.3353-29.4156.2379-2.34-.0234-2.3608,4.0805-.018,4.1039,9.8061.0972,19.6105-.1047,29.4156-.238,2.2082-.03,4.421-.0165,6.6355.0115-.5208.1256-1.0429.2531-1.5611.376-3.3632.798-6.6989,1.7225-10.0621,2.5182-2.6253.6211-5.3526,1.4232-7.3059,3.6215a2.236,2.236,0,0,0,.3536,3.2248c3.9345,2.5338,9.8235,1.1393,14.1326.9478,6.4049-.2845,12.8-.787,19.1968-1.23,6.4286-.4454,12.8618-.7512,19.2964-1.0635,6.5187-.3165,13.09-1.2793,19.6047-1.3C246.53,101.9374,246.5536,97.8336,244.21,97.8409Z"/><path class="a" d="M26.558,83.5961a2.477,2.477,0,0,1-2.3054-1.5719c-6.8139-17.3626-9.601-43.0869-11.099-56.9067-.2766-2.5554-.4961-4.5742-.6866-6.0354a2.4761,2.4761,0,0,1,4.9107-.64c.1973,1.5149.4178,3.5569.6983,6.1423,1.4728,13.59,4.2134,38.885,10.7856,55.6316a2.4768,2.4768,0,0,1-2.3036,3.38Z"/><path class="b" d="M48.403,81.5794a14.2052,14.2052,0,0,0,2.4916-.102v-1.76A9.5526,9.5526,0,0,1,48.403,81.5794Z"/><path class="b" d="M182.0263,68.1564c.05,0,.2377.0315.2805-.0011a3.0571,3.0571,0,0,0-.1592-.818,5.7929,5.7929,0,0,0-.4932-1.2944,5.9682,5.9682,0,0,0-4.9038-3.11,6.8081,6.8081,0,0,0-6.8871,5.2715q1.338-.0053,2.6761-.0106Q177.2827,68.1748,182.0263,68.1564Z"/><path class="b" d="M213.972,68.1564c.05,0,.2377.0315.28-.0011a3.0571,3.0571,0,0,0-.1592-.818,5.7929,5.7929,0,0,0-.4932-1.2944,5.9682,5.9682,0,0,0-4.9038-3.11,6.8081,6.8081,0,0,0-6.8871,5.2715q1.338-.0053,2.6761-.0106Q209.2285,68.1748,213.972,68.1564Z"/><path class="b" d="M102.5219,63.28A7.27,7.27,0,0,0,95.054,67.146a9.0091,9.0091,0,0,0,.5093,9.124,7.0573,7.0573,0,0,0,8.71,2.2094A8.032,8.032,0,0,0,108.54,71.1C108.4921,67.4326,106.4245,63.8179,102.5219,63.28Z"/><path class="b" d="M47.1471,78.475c2.71-1.4146,3.8744-4.505,3.91-7.4122-.0432-3.4388-1.9048-7.1843-5.6139-7.7868a6.681,6.681,0,0,0-7.1826,4.1846,9.8656,9.8656,0,0,0,.6553,8.75A6.35,6.35,0,0,0,47.1471,78.475Z"/><path class="b" d="M43.7415,33.107a6.16,6.16,0,0,0-6.007-4.9782,6.58,6.58,0,0,0-6.3227,4.9782h12.33Z"/><path class="c" d="M32.9275,46.1535a11.2318,11.2318,0,0,0,10.3549.1914,12.3841,12.3841,0,0,0,3.1816-2.5071.2025.2025,0,0,0,.1071-.0669q.6018-.7786,1.2038-1.5572a.2865.2865,0,0,0-.0448-.3947q-1.1424-.9309-2.2848-1.8619a.2853.2853,0,0,0-.3972,0,18.7647,18.7647,0,0,1-1.5969,1.94,7.062,7.062,0,0,1-5.4063,1.9676c-4.0853-.2-6.6475-3.3082-6.9735-7.2059H44.4942c1.0884,0,2.38.16,2.9872-.9976.5734-1.0932.0708-2.8811-.2482-3.9936a10.3164,10.3164,0,0,0-2.11-3.8669,9.9254,9.9254,0,0,0-15.9591,1.38,13.1893,13.1893,0,0,0-1.6821,9.1027A10.7447,10.7447,0,0,0,32.9275,46.1535Zm4.807-18.0247a6.16,6.16,0,0,1,6.007,4.9782h-12.33A6.58,6.58,0,0,1,37.7345,28.1288Z"/><path class="c" d="M65.267,25.9088a9.9787,9.9787,0,0,0-3.8081-1.3518A8.8327,8.8327,0,0,0,54.08,26.5759a5.9005,5.9005,0,0,0-1.1065,7.0358c1.4244,2.4632,4.314,3.3905,6.8971,4.0891,1.77.4786,4.75,1.0234,4.73,3.372-.0188,2.1861-2.4328,3.0094-4.2717,3.0272a6.9842,6.9842,0,0,1-5.021-1.9791,19.5673,19.5673,0,0,1-1.785-2.1579.2973.2973,0,0,0-.4165-.1009q-1.2109.9865-2.4222,1.9731c-.0856.07-.0334.23.02.3a17.1053,17.1053,0,0,0,2.862,3.1751,10.6851,10.6851,0,0,0,5.7722,2.1407c4.0809.3114,8.75-1.6914,8.86-6.3139a6.0976,6.0976,0,0,0-3.3981-5.5278,18.6449,18.6449,0,0,0-3.96-1.3909c-1.4672-.3947-3.5725-.843-4.5027-2.1429-1.3-1.8166.4933-3.5754,2.2216-4a6.4556,6.4556,0,0,1,5.0687.8937c.9233.632,1.54,1.8157,2.8338,1.4277a1.672,1.672,0,0,0,1.0828-2.2171,5.5675,5.5675,0,0,0-2.278-2.27"/><path class="c" d="M30.8532,60.1139a.3142.3142,0,0,0-.1126-.0722c-3.1434-1.24-6.3976.6611-8.317,3.1527V61.4089a1.9081,1.9081,0,0,0-1.8417-1.9047c-.024-.0009-.0462-.007-.07-.007A1.907,1.907,0,0,0,18.6,61.4035v7.2251c0,4.3284,0,8.6795,0,12.8854v.345a.2964.2964,0,0,0,.3324.2841h3.2387c.0911,0,.2519-.0723.2519-.1853V73.5c0-1.0376-.02-2.0774,0-3.115a8.0895,8.0895,0,0,1,1.461-4.4417l.0135-.0187c1.0019-1.44,2.8222-3.1635,4.7444-2.7893,1.0546.2055,2.1235.7543,2.9007-.3862A1.8128,1.8128,0,0,0,30.8532,60.1139Z"/><path class="c" d="M64.3393,60.3565A2.0114,2.0114,0,0,0,61.06,62.0354c-.0253,1.31,0,2.6228,0,3.9329q0,6.3819,0,12.7637v3.3145c0,.0417.0365.051.071.051h3.2394c.13,0,.4323-.1739.4323-.3272l-.0006-18.25C64.8011,62.4887,65.0175,61.2126,64.3393,60.3565Z"/><path class="c" d="M84.3919,71.4967a.8029.8029,0,0,0-.2146-.082,12.02,12.02,0,0,1-1.1711-.7516,14.1157,14.1157,0,0,0-1.7485-.6842c-1.3093-.4347-2.66-.72-3.96-1.1874-1.5715-.5656-3.5534-1.7154-2.7326-3.7239.6575-1.6085,2.841-2.0453,4.3771-1.921a6.6609,6.6609,0,0,1,4.1671,2.0056,1.8076,1.8076,0,0,0,2.2551.2449c2.1172-1.3618-.4715-3.6187-1.74-4.3714C79.7381,58.72,72.9214,59.1211,71.0878,63.939a5.8107,5.8107,0,0,0,1.2611,6.1537c2.0045,2.035,4.9454,2.449,7.542,3.29,1.7165.5559,3.912,1.7649,2.9573,3.9594-.7319,1.6824-3.085,2.0707-4.6947,1.95-2.795-.2107-4.4724-1.9964-6.0828-4.0623a.3184.3184,0,0,0-.4558-.0656q-1.21.9855-2.4207,1.9715a.2409.2409,0,0,0-.0092.3153,13.98,13.98,0,0,0,3.8474,3.8134A11.3859,11.3859,0,0,0,81.06,82.4547a6.9551,6.9551,0,0,0,5.3442-4.3254A6.0418,6.0418,0,0,0,84.3919,71.4967Z"/><path class="c" d="M106.8153,61.2292a10.9422,10.9422,0,0,0-12.9219,1.2933A12.1376,12.1376,0,0,0,91.217,75.75a11.0926,11.0926,0,0,0,10.2408,6.9212,10.77,10.77,0,0,0,10.379-7.9647A12.0882,12.0882,0,0,0,106.8153,61.2292Zm-2.5423,17.25a7.0573,7.0573,0,0,1-8.71-2.2094,9.0091,9.0091,0,0,1-.5093-9.124,7.27,7.27,0,0,1,7.4679-3.8656c3.9026.5375,5.97,4.1522,6.0179,7.82A8.032,8.032,0,0,1,104.273,78.4794Z"/><path class="c" d="M132.6477,61.1172c-3.6188-2.3028-8.4716-1.3994-11.5019,1.429a1.956,1.956,0,0,0-.5608-1.5566,2.4852,2.4852,0,0,0-1.6071-.54c-1.5.0274-1.65,1.3648-1.65,2.5124v9.4605c0,2.56-.1486,5.1691,0,7.7255a2.0459,2.0459,0,0,0,2.5687,1.7875c1.4125-.3534,1.2449-1.8047,1.2447-2.9241q0-4.8393,0-9.6787a5.6419,5.6419,0,0,1,2.1076-4.72c1.7641-1.4227,4.82-2.2866,6.843-.8515a5.1822,5.1822,0,0,1,1.9247,3.8742c.271,2.8385.04,5.7888.04,8.6362,0,1.255-.0324,2.5151,0,3.77a1.9931,1.9931,0,0,0,2.1817,1.9455c1.6582-.043,1.632-1.6289,1.632-2.836v-9.684a13.2991,13.2991,0,0,0-.6955-5.4565A7.1242,7.1242,0,0,0,132.6477,61.1172Z"/><path class="c" d="M157.6274,61.1172c-3.6188-2.3028-8.4716-1.3994-11.5018,1.429a1.9563,1.9563,0,0,0-.5608-1.5566,2.4857,2.4857,0,0,0-1.6072-.54c-1.5.0274-1.65,1.3648-1.65,2.5124v9.4605c0,2.56-.1486,5.1691,0,7.7255a2.0459,2.0459,0,0,0,2.5688,1.7875c1.4124-.3534,1.2448-1.8047,1.2446-2.9241q0-4.8393,0-9.6787a5.6419,5.6419,0,0,1,2.1076-4.72c1.7641-1.4227,4.82-2.2866,6.8431-.8515a5.1821,5.1821,0,0,1,1.9246,3.8742c.2711,2.8385.04,5.7888.04,8.6362,0,1.255-.0324,2.5151,0,3.77a1.993,1.993,0,0,0,2.1816,1.9455c1.6582-.043,1.632-1.6289,1.632-2.836v-9.684a13.2991,13.2991,0,0,0-.6955-5.4565A7.1242,7.1242,0,0,0,157.6274,61.1172Z"/><path class="c" d="M184.02,75.1541c-.049-.04-.4522-.2971-.4994-.2358q-.4908.636-.9814,1.2724a7.2532,7.2532,0,0,1-5.3328,2.75,6.9561,6.9561,0,0,1-6.877-4.0131,8.7147,8.7147,0,0,1-.5925-1.8024,3.7456,3.7456,0,0,1-.2023-1.48c.1144-.2631-.007-.1138.3345-.1694a13.9583,13.9583,0,0,1,2.1046-.0081c4.0978-.0162,8.201.0309,12.298-.0486,3.4487-.0667,1.3932-5.3974.3467-7.0993a10.4456,10.4456,0,0,0-8.5023-4.8244,9.9859,9.9859,0,0,0-9.1684,5.8791,12.9524,12.9524,0,0,0,.47,11.6737,11.4961,11.4961,0,0,0,9.6409,5.2485c4.0081.0859,6.9549-2.219,9.2824-5.2552a.0511.0511,0,0,0-.028-.0343Q185.1669,76.0806,184.02,75.1541Zm-7.27-12.2213a5.9682,5.9682,0,0,1,4.9038,3.11,5.7929,5.7929,0,0,1,.4932,1.2944,3.0571,3.0571,0,0,1,.1592.818c-.0428.0326-.2305.0009-.2805.0011q-4.7433.0186-9.4867.0373-1.3385.0051-2.6761.0106A6.8081,6.8081,0,0,1,176.7506,62.9328Z"/><path class="c" d="M243.8134,73.26c-.3931-.3675-.6358-.9187-1.0506-1.2981a6.7082,6.7082,0,0,0-1.1667-.8392,12.65,12.65,0,0,0-2.7956-1.1393c-1.14-.3376-2.4153-.5309-3.6069-.8862-.0735-.0222-.1437-.0458-.2158-.0685a7.0647,7.0647,0,0,1-1.9044-.8891,2.5573,2.5573,0,0,1-.724-3.6026,4.9268,4.9268,0,0,1,4.1851-1.6311,5.7742,5.7742,0,0,1,3.7328,1.5213,3.1138,3.1138,0,0,0,.8157.6237,1.8207,1.8207,0,0,0,1.9819-.1684c1.0034-.8859.3044-1.9831-.4514-2.6965-3.2943-3.1086-9.6667-3.5195-12.8675-.0809a5.6571,5.6571,0,0,0-.4834,7.131c1.4434,1.8932,3.8341,2.6558,6.0433,3.2366,1.9366.5089,5.0847.7412,5.5321,3.1024a3.0218,3.0218,0,0,1-2.1666,3.35,6.7181,6.7181,0,0,1-6.8261-1.2049,9.933,9.933,0,0,1-1.0012-1.0311c-.212-.2471-.4161-.5-.6218-.7519l-.679-.8438-2.62,2.2807.844.9642.0017-.0015a12.7377,12.7377,0,0,0,2.0215,1.9987,11.2539,11.2539,0,0,0,6.16,2.1234,9.1268,9.1268,0,0,0,6.9342-2.297A5.9226,5.9226,0,0,0,243.8134,73.26Z"/><path class="d" d="M69.5428,56.6018a1.988,1.988,0,0,0,1.79-1.9422,2.14,2.14,0,0,0-1.4264-1.95,2.195,2.195,0,0,0-2.4522.4307,1.9655,1.9655,0,0,0-.2288,2.3767A2.5361,2.5361,0,0,0,69.5428,56.6018Z"/><path class="d" d="M191.5871,73.3766A2.22,2.22,0,0,0,189.5363,74.8a2.1911,2.1911,0,0,0,.6838,2.4472,2.268,2.268,0,0,0,2.5567.1844,2.18,2.18,0,0,0,1.0195-2.28A2.2605,2.2605,0,0,0,191.5871,73.3766Z"/><path class="d" d="M222.9749,61.9822a2.2013,2.2013,0,0,0-2.0474,1.4074,2.1473,2.1473,0,0,0,.6953,2.4058,2.29,2.29,0,0,0,2.5559.1858,2.137,2.137,0,0,0,1.0118-2.25A2.2623,2.2623,0,0,0,222.9749,61.9822Z"/><path class="c" d="M215.9661,75.1541c-.049-.04-.4522-.2971-.4994-.2358q-.4908.636-.9814,1.2724a7.2532,7.2532,0,0,1-5.3328,2.75,6.956,6.956,0,0,1-6.877-4.0131,8.7147,8.7147,0,0,1-.5925-1.8024,3.7456,3.7456,0,0,1-.2023-1.48c.1144-.2631-.007-.1138.3345-.1694a13.9583,13.9583,0,0,1,2.1046-.0081c4.0978-.0162,8.201.0309,12.298-.0486,3.4487-.0667,1.3932-5.3974.3467-7.0993a10.4456,10.4456,0,0,0-8.5023-4.8244,9.9859,9.9859,0,0,0-9.1684,5.8791,12.9524,12.9524,0,0,0,.47,11.6737,11.496,11.496,0,0,0,9.6409,5.2485c4.008.0859,6.9549-2.219,9.2824-5.2552a.0511.0511,0,0,0-.028-.0343Q217.1126,76.0806,215.9661,75.1541Zm-7.27-12.2213a5.9682,5.9682,0,0,1,4.9038,3.11,5.7929,5.7929,0,0,1,.4932,1.2944,3.0571,3.0571,0,0,1,.1592.818c-.0428.0326-.2305.0009-.28.0011q-4.7433.0186-9.4867.0373-1.3385.0051-2.6761.0106A6.8081,6.8081,0,0,1,208.6963,62.9328Z"/><path class="c" d="M72.9072,92.9989a2.6386,2.6386,0,0,1-.87.5587,2.9246,2.9246,0,0,1-1.0971.2,2.8623,2.8623,0,0,1-1.41-.3426,2.55,2.55,0,0,1-.9752-.94,2.772,2.772,0,0,1,0-2.7173,2.5456,2.5456,0,0,1,.9752-.94,3.051,3.051,0,0,1,2.5071-.1377,2.6766,2.6766,0,0,1,.87.5693l-.6062.6128a1.7375,1.7375,0,0,0-.5956-.44,1.8362,1.8362,0,0,0-.765-.1575,1.8668,1.8668,0,0,0-.9488.24,1.7562,1.7562,0,0,0-.6563.6576,2.0074,2.0074,0,0,0,0,1.9029,1.7537,1.7537,0,0,0,.6563.66,1.8665,1.8665,0,0,0,.9488.24,1.932,1.932,0,0,0,.765-.1483,1.7937,1.7937,0,0,0,.5956-.4052Z"/><path class="c" d="M73.856,91.1171a2.6,2.6,0,0,1,.3558-1.3587,2.547,2.547,0,0,1,.9752-.94,3.0689,3.0689,0,0,1,2.8208,0,2.5509,2.5509,0,0,1,.9751.94,2.772,2.772,0,0,1,0,2.7173,2.5552,2.5552,0,0,1-.9751.94,3.0744,3.0744,0,0,1-2.8208,0,2.5513,2.5513,0,0,1-.9752-.94A2.6035,2.6035,0,0,1,73.856,91.1171Zm.8961,0a1.88,1.88,0,0,0,.24.95,1.7542,1.7542,0,0,0,.6562.66,1.9976,1.9976,0,0,0,1.8983,0,1.7537,1.7537,0,0,0,.6563-.66,2.0074,2.0074,0,0,0,0-1.9029,1.7562,1.7562,0,0,0-.6563-.6576,1.9932,1.9932,0,0,0-1.8983,0,1.7566,1.7566,0,0,0-.6562.6576A1.8744,1.8744,0,0,0,74.7521,91.1171Z"/><path class="c" d="M81.442,88.4808l.0369.7195a2.2118,2.2118,0,0,1,.7247-.5317,2.1633,2.1633,0,0,1,.9146-.1931A1.93,1.93,0,0,1,84.9005,89.57a2.2793,2.2793,0,0,1,.7907-.7993,2.0788,2.0788,0,0,1,1.0911-.2952,2.0182,2.0182,0,0,1,1.0727.2847,1.9732,1.9732,0,0,1,.7327.7959,2.5334,2.5334,0,0,1,.2662,1.1887v3.0079h-.87V90.8838a1.8043,1.8043,0,0,0-.203-.8987,1.3783,1.3783,0,0,0-.5218-.5383,1.3359,1.3359,0,0,0-1.3415,0,1.365,1.365,0,0,0-.5245.5409,1.8218,1.8218,0,0,0-.203.9067v2.8583h-.87V90.8838a1.8043,1.8043,0,0,0-.203-.8987,1.3872,1.3872,0,0,0-.5218-.5383,1.3322,1.3322,0,0,0-1.34,0,1.4023,1.4023,0,0,0-.5245.5416,1.8118,1.8118,0,0,0-.2056.9073v2.857h-.87V88.4808Z"/><path class="c" d="M91.2207,88.4808l.0369.7195a2.2112,2.2112,0,0,1,.7248-.5317,2.1625,2.1625,0,0,1,.9145-.1931A1.93,1.93,0,0,1,94.6792,89.57a2.28,2.28,0,0,1,.7907-.7993,2.0792,2.0792,0,0,1,1.0912-.2952,2.0182,2.0182,0,0,1,1.0727.2847,1.9738,1.9738,0,0,1,.7327.7959,2.5334,2.5334,0,0,1,.2661,1.1887v3.0079h-.87V90.8838a1.8054,1.8054,0,0,0-.2029-.8987,1.3792,1.3792,0,0,0-.5219-.5383,1.3359,1.3359,0,0,0-1.3415,0,1.3656,1.3656,0,0,0-.5245.5409,1.8229,1.8229,0,0,0-.2029.9067v2.8583h-.87V90.8838a1.8054,1.8054,0,0,0-.2029-.8987,1.3881,1.3881,0,0,0-.5219-.5383,1.3322,1.3322,0,0,0-1.34,0,1.403,1.403,0,0,0-.5245.5416,1.8118,1.8118,0,0,0-.2056.9073v2.857h-.87V88.4808Z"/><path class="c" d="M100.9256,88.4808v2.8056a1.7617,1.7617,0,0,0,.4138,1.2144,1.3734,1.3734,0,0,0,1.078.4665,1.5144,1.5144,0,0,0,.8018-.2142,1.5506,1.5506,0,0,0,.5588-.5825,1.6821,1.6821,0,0,0,.2056-.8328v-2.857h.87v5.2719h-.7854l-.0474-.8981a2.1345,2.1345,0,0,1-1.7771.9033,2.0833,2.0833,0,0,1-1.9055-1.1379,2.5729,2.5729,0,0,1-.282-1.2209V88.4808Z"/><path class="c" d="M106.54,93.7527V88.4808h.7854l.0475.9409a2.2626,2.2626,0,0,1,.7643-.6958,2.0613,2.0613,0,0,1,1.012-.25,2.0856,2.0856,0,0,1,1.9062,1.1386,2.5736,2.5736,0,0,1,.2821,1.221v2.9176h-.87v-2.805a1.7616,1.7616,0,0,0-.4138-1.217,1.3767,1.3767,0,0,0-1.0786-.4645,1.52,1.52,0,0,0-.8012.2142,1.56,1.56,0,0,0-.5588.58,1.6761,1.6761,0,0,0-.2056.8349v2.857Z"/><path class="c" d="M112.75,86.4514a.59.59,0,0,1,.1713-.4349.5836.5836,0,0,1,.43-.1713.5987.5987,0,0,1,.4376.1713.6274.6274,0,0,1,0,.8671.593.593,0,0,1-.4376.174.5781.5781,0,0,1-.43-.174A.5929.5929,0,0,1,112.75,86.4514Zm.1687,7.3013V88.4808h.875v5.2719Z"/><path class="c" d="M119.82,92.9989a2.64,2.64,0,0,1-.87.5587,2.9237,2.9237,0,0,1-1.097.2,2.8624,2.8624,0,0,1-1.41-.3426,2.5506,2.5506,0,0,1-.9752-.94,2.772,2.772,0,0,1,0-2.7173,2.5463,2.5463,0,0,1,.9752-.94,3.051,3.051,0,0,1,2.5071-.1377,2.6781,2.6781,0,0,1,.87.5693l-.6062.6128a1.7379,1.7379,0,0,0-.5957-.44,1.8361,1.8361,0,0,0-.7649-.1575,1.8675,1.8675,0,0,0-.9489.24,1.7559,1.7559,0,0,0-.6562.6576,2.0067,2.0067,0,0,0,0,1.9029,1.7535,1.7535,0,0,0,.6562.66,1.8671,1.8671,0,0,0,.9489.24,1.9318,1.9318,0,0,0,.7649-.1483,1.7941,1.7941,0,0,0,.5957-.4052Z"/><path class="c" d="M120.9687,92.0817a1.4975,1.4975,0,0,1,.6141-1.2572,2.6757,2.6757,0,0,1,1.6578-.4665,4.5475,4.5475,0,0,1,1.387.2161v-.0553A1.1473,1.1473,0,0,0,124.24,89.6a1.5745,1.5745,0,0,0-1.0628-.3341,3.43,3.43,0,0,0-1.4759.3842l-.3163-.6583a4.961,4.961,0,0,1,.9646-.398,3.5009,3.5009,0,0,1,.9278-.1186,2.0815,2.0815,0,0,1,2.22,2.2245v3.0527h-.7854l-.0474-.88a1.8266,1.8266,0,0,1-.7169.651,2.2574,2.2574,0,0,1-1.05.2345,2.0535,2.0535,0,0,1-1.3942-.4638A1.5286,1.5286,0,0,1,120.9687,92.0817Zm2.3509-.933a1.9866,1.9866,0,0,0-1.07.2451.8153.8153,0,0,0-.0764,1.331,1.2909,1.2909,0,0,0,.82.2425,1.76,1.76,0,0,0,.8335-.1951,1.5454,1.5454,0,0,0,.5851-.5271,1.3363,1.3363,0,0,0,.2162-.7432V91.36A4.1643,4.1643,0,0,0,123.32,91.1487Z"/><path class="c" d="M127.474,88.4808V87.0629h.87v1.4179h1.4344v.7907h-1.4344V92.023q0,.944.875.9443a1.8209,1.8209,0,0,0,.282-.0231,1.0441,1.0441,0,0,0,.2774-.0843v.7557a1.9287,1.9287,0,0,1-.3249.1,1.9792,1.9792,0,0,1-.4348.0421,1.4892,1.4892,0,0,1-1.1465-.4283,1.7269,1.7269,0,0,1-.398-1.2216V89.2715h-.87v-.7907Z"/><path class="c" d="M130.9273,86.4514a.5894.5894,0,0,1,.1713-.4349.5835.5835,0,0,1,.43-.1713.5985.5985,0,0,1,.4375.1713.6271.6271,0,0,1,0,.8671.5927.5927,0,0,1-.4375.174.578.578,0,0,1-.43-.174A.5925.5925,0,0,1,130.9273,86.4514Zm.1687,7.3013V88.4808h.875v5.2719Z"/><path class="c" d="M133.2888,91.1171a2.6,2.6,0,0,1,.3558-1.3587,2.5456,2.5456,0,0,1,.9752-.94,3.0687,3.0687,0,0,1,2.8207,0,2.55,2.55,0,0,1,.9752.94,2.772,2.772,0,0,1,0,2.7173,2.5548,2.5548,0,0,1-.9752.94,3.0742,3.0742,0,0,1-2.8207,0,2.55,2.55,0,0,1-.9752-.94A2.6035,2.6035,0,0,1,133.2888,91.1171Zm.8961,0a1.88,1.88,0,0,0,.24.95,1.7537,1.7537,0,0,0,.6563.66,1.9976,1.9976,0,0,0,1.8983,0,1.7545,1.7545,0,0,0,.6563-.66,2.0074,2.0074,0,0,0,0-1.9029,1.7569,1.7569,0,0,0-.6563-.6576,1.9932,1.9932,0,0,0-1.8983,0,1.7562,1.7562,0,0,0-.6563.6576A1.8743,1.8743,0,0,0,134.1849,91.1171Z"/><path class="c" d="M140.0893,93.7527V88.4808h.7854l.0474.9409a2.2639,2.2639,0,0,1,.7644-.6958,2.0613,2.0613,0,0,1,1.012-.25,2.0856,2.0856,0,0,1,1.9062,1.1386,2.5736,2.5736,0,0,1,.282,1.221v2.9176h-.87v-2.805a1.7616,1.7616,0,0,0-.4138-1.217,1.3767,1.3767,0,0,0-1.0786-.4645,1.52,1.52,0,0,0-.8012.2142,1.56,1.56,0,0,0-.5588.58,1.6761,1.6761,0,0,0-.2056.8349v2.857Z"/><path class="c" d="M149.051,93.7527V88.4808h1.3283l.0738.7538a1.8065,1.8065,0,0,1,1.582-.8592,2.5527,2.5527,0,0,1,.7064.1054l-.2109,1.3125a1.9344,1.9344,0,0,0-.6009-.1,1.22,1.22,0,0,0-.9863.4507,1.9627,1.9627,0,0,0-.3743,1.2842v2.3246Z"/><path class="c" d="M154.3808,91.57a1.3872,1.3872,0,0,0,.5245.7116,1.4953,1.4953,0,0,0,.8935.2741,2.0648,2.0648,0,0,0,.91-.1766,2.6406,2.6406,0,0,0,.6563-.4559l.9172,1.0964a3.7109,3.7109,0,0,1-1.21.6589,4.0076,4.0076,0,0,1-1.1471.1792,3.2438,3.2438,0,0,1-1.5445-.3558,2.6384,2.6384,0,0,1-1.4285-2.4011,2.6962,2.6962,0,0,1,.3638-1.4,2.6488,2.6488,0,0,1,.9936-.97,2.8608,2.8608,0,0,1,1.4311-.3558,2.81,2.81,0,0,1,1.416.3532,2.6112,2.6112,0,0,1,.9778.97,2.7649,2.7649,0,0,1,.3584,1.4133V91.57Zm2.552-.8434a1.3535,1.3535,0,0,0-.4534-.7492,1.2466,1.2466,0,0,0-.8229-.2846,1.2918,1.2918,0,0,0-.8408.29,1.3468,1.3468,0,0,0-.4665.7439Z"/><path class="c" d="M159.1783,93.0832l.7169-1.1438a6.4087,6.4087,0,0,0,.8354.477,1.6551,1.6551,0,0,0,.6827.1766.6117.6117,0,0,0,.3742-.1054.322.322,0,0,0,.1423-.2689.4359.4359,0,0,0-.2661-.3848,5.7174,5.7174,0,0,0-.6141-.29q-.3687-.1531-.7406-.3452a1.9566,1.9566,0,0,1-.622-.4982,1.2109,1.2109,0,0,1-.25-.7913,1.3613,1.3613,0,0,1,.53-1.1017,2.3161,2.3161,0,0,1,1.5-.4322,4.536,4.536,0,0,1,.9995.1186,3.1872,3.1872,0,0,1,.9568.3821l-.6695,1.1544a2.48,2.48,0,0,0-.6042-.2714,2.1345,2.1345,0,0,0-.63-.1186,1.0137,1.0137,0,0,0-.3242.0606.2328.2328,0,0,0-.1766.2346.3724.3724,0,0,0,.2451.3222,6.3353,6.3353,0,0,0,.5825.2582q.3638.1424.7492.3348a2.0016,2.0016,0,0,1,.651.5113,1.2608,1.2608,0,0,1,.2662.8355,1.4287,1.4287,0,0,1-.2847.8908,1.7989,1.7989,0,0,1-.759.5719,2.7059,2.7059,0,0,1-1.05.1977,3.63,3.63,0,0,1-1.1254-.19A3.8883,3.8883,0,0,1,159.1783,93.0832Z"/><path class="c" d="M164.5661,88.4808H166l.0369.5693a2.363,2.363,0,0,1,.7748-.4981,2.5624,2.5624,0,0,1,.9548-.1766,2.4789,2.4789,0,0,1,1.3231.3558,2.52,2.52,0,0,1,.9119.9752,3.1608,3.1608,0,0,1,0,2.8207,2.5162,2.5162,0,0,1-.9119.9752,2.4789,2.4789,0,0,1-1.3231.3558,2.5244,2.5244,0,0,1-.9231-.1661,2.4863,2.4863,0,0,1-.7591-.4612v3.1575h-1.5181Zm2.8577,1.2124a1.26,1.26,0,0,0-.96.4059,1.5542,1.5542,0,0,0,0,2.0353,1.3375,1.3375,0,0,0,1.9194,0,1.5542,1.5542,0,0,0,0-2.0353A1.2589,1.2589,0,0,0,167.4238,89.6932Z"/><path class="c" d="M170.966,91.1171a2.7178,2.7178,0,0,1,.3663-1.4107,2.6462,2.6462,0,0,1,1.0016-.9752,3.116,3.116,0,0,1,2.8919,0,2.6533,2.6533,0,0,1,.9989.9752,2.8983,2.8983,0,0,1,0,2.8207,2.6489,2.6489,0,0,1-.9989.9752,3.116,3.116,0,0,1-2.8919,0,2.6419,2.6419,0,0,1-1.0016-.9752A2.7155,2.7155,0,0,1,170.966,91.1171Zm1.4759,0a1.4323,1.4323,0,0,0,.38,1.0173,1.3374,1.3374,0,0,0,1.9193,0,1.5539,1.5539,0,0,0,0-2.0353,1.3374,1.3374,0,0,0-1.9193,0A1.4328,1.4328,0,0,0,172.4419,91.1171Z"/><path class="c" d="M177.5926,93.7527V88.4808h1.3283l.0632.6431a2.1435,2.1435,0,0,1,.7459-.5535,2.3156,2.3156,0,0,1,.9574-.195,1.8818,1.8818,0,0,1,1.4707.6088,2.4462,2.4462,0,0,1,.5482,1.6954v3.0731h-1.5234v-2.778q0-1.2819-.96-1.2815a1.0041,1.0041,0,0,0-.8039.3637,1.5378,1.5378,0,0,0-.3083,1.0233v2.6725Z"/><path class="c" d="M183.6551,93.0832l.7169-1.1438a6.4028,6.4028,0,0,0,.8355.477,1.6543,1.6543,0,0,0,.6826.1766.6117.6117,0,0,0,.3742-.1054.3221.3221,0,0,0,.1424-.2689.436.436,0,0,0-.2662-.3848,5.7174,5.7174,0,0,0-.6141-.29q-.3687-.1531-.7406-.3452a1.9566,1.9566,0,0,1-.622-.4982,1.2109,1.2109,0,0,1-.25-.7913,1.3613,1.3613,0,0,1,.53-1.1017,2.3161,2.3161,0,0,1,1.5-.4322,4.536,4.536,0,0,1,.9995.1186,3.1862,3.1862,0,0,1,.9568.3821l-.6695,1.1544a2.48,2.48,0,0,0-.6042-.2714,2.1345,2.1345,0,0,0-.63-.1186,1.0137,1.0137,0,0,0-.3242.0606.2328.2328,0,0,0-.1766.2346.3724.3724,0,0,0,.2451.3222,6.3475,6.3475,0,0,0,.5825.2582q.3637.1424.7492.3348a2.0016,2.0016,0,0,1,.651.5113,1.2608,1.2608,0,0,1,.2662.8355,1.4287,1.4287,0,0,1-.2847.8908,1.7989,1.7989,0,0,1-.759.5719,2.7059,2.7059,0,0,1-1.05.1977,3.63,3.63,0,0,1-1.1254-.19A3.89,3.89,0,0,1,183.6551,93.0832Z"/><path class="c" d="M188.8742,92.3031a1.56,1.56,0,0,1,.3031-.9436,2.0607,2.0607,0,0,1,.8355-.6589,2.9027,2.9027,0,0,1,1.2177-.2424,4.1132,4.1132,0,0,1,.4559.0263q.24.0256.483.0685-.174-.86-1.25-.86a2.141,2.141,0,0,0-1.2809.48l-.5219-1.2809a5.3773,5.3773,0,0,1,1.0806-.39,4.3805,4.3805,0,0,1,1.0121-.1265,2.8816,2.8816,0,0,1,1.3263.2873,2.11,2.11,0,0,1,.8724.8117,2.375,2.375,0,0,1,.311,1.2315v3.0468h-1.2756l-.1-.5641a2.1032,2.1032,0,0,1-.72.49,2.3715,2.3715,0,0,1-.93.1792,1.9546,1.9546,0,0,1-1.31-.4323A1.4027,1.4027,0,0,1,188.8742,92.3031Zm1.5181-.3479a.5154.5154,0,0,0,.203.4243.836.836,0,0,0,.535.1608,1.1088,1.1088,0,0,0,.7624-.2741.868.868,0,0,0,.3083-.6747V91.486a2.8657,2.8657,0,0,0-.42-.1,2.6549,2.6549,0,0,0-.44-.0369,1.3075,1.3075,0,0,0-.6985.1581A.5012.5012,0,0,0,190.3923,91.9552Z"/><path class="c" d="M194.9842,93.7527V85.8452h1.5181v3.1575a2.4984,2.4984,0,0,1,.7591-.4613,2.5243,2.5243,0,0,1,.9231-.166,2.4789,2.4789,0,0,1,1.3231.3558,2.52,2.52,0,0,1,.9119.9752,3.1608,3.1608,0,0,1,0,2.8207,2.5162,2.5162,0,0,1-.9119.9752,2.4789,2.4789,0,0,1-1.3231.3558,2.55,2.55,0,0,1-.9548-.1766,2.3641,2.3641,0,0,1-.7748-.4981l-.0369.5693Zm2.8577-1.2124a1.2568,1.2568,0,0,0,.9593-.4059,1.5542,1.5542,0,0,0,0-2.0353,1.3375,1.3375,0,0,0-1.9194,0,1.5542,1.5542,0,0,0,0,2.0353A1.2577,1.2577,0,0,0,197.8419,92.54Z"/><path class="c" d="M203.2712,85.6344v8.1183h-1.5181V85.6344Z"/><path class="c" d="M205.7012,91.57a1.3872,1.3872,0,0,0,.5245.7116,1.4953,1.4953,0,0,0,.8935.2741,2.0651,2.0651,0,0,0,.91-.1766,2.6406,2.6406,0,0,0,.6563-.4559l.9172,1.0964a3.7109,3.7109,0,0,1-1.21.6589,4.0076,4.0076,0,0,1-1.1471.1792,3.2433,3.2433,0,0,1-1.5445-.3558,2.6379,2.6379,0,0,1-1.4285-2.4011,2.6971,2.6971,0,0,1,.3637-1.4,2.6491,2.6491,0,0,1,.9937-.97,2.8608,2.8608,0,0,1,1.4311-.3558,2.81,2.81,0,0,1,1.416.3532,2.6112,2.6112,0,0,1,.9778.97,2.7649,2.7649,0,0,1,.3584,1.4133V91.57Zm2.5519-.8434a1.3534,1.3534,0,0,0-.4533-.7492,1.2467,1.2467,0,0,0-.823-.2846,1.2917,1.2917,0,0,0-.8407.29,1.3468,1.3468,0,0,0-.4665.7439Z"/><path class="c" d="M139.3019,99.0683l.0475.8737a2.5734,2.5734,0,0,1,1.9615-.8789,2.7172,2.7172,0,0,1,1.37.3432,2.5112,2.5112,0,0,1,.9462.94,2.8456,2.8456,0,0,1,0,2.7173,2.5148,2.5148,0,0,1-.9462.94,2.8787,2.8787,0,0,1-2.4438.1318,2.5555,2.5555,0,0,1-.8513-.5851v3.4263h-.87V99.0683Zm1.93,4.4865a1.8655,1.8655,0,0,0,.9488-.24,1.753,1.753,0,0,0,.6563-.66,2.0074,2.0074,0,0,0,0-1.9029,1.7569,1.7569,0,0,0-.6563-.6576,1.993,1.993,0,0,0-1.8982,0,1.7569,1.7569,0,0,0-.6563.6576,2.0074,2.0074,0,0,0,0,1.9029,1.753,1.753,0,0,0,.6563.66A1.8662,1.8662,0,0,0,141.2318,103.5548Z"/><path class="c" d="M144.9217,101.7046a2.6005,2.6005,0,0,1,.3558-1.3587,2.5467,2.5467,0,0,1,.9751-.94,3.07,3.07,0,0,1,2.8208,0,2.5512,2.5512,0,0,1,.9752.94,2.772,2.772,0,0,1,0,2.7173,2.5548,2.5548,0,0,1-.9752.94,3.0736,3.0736,0,0,1-2.8208,0,2.55,2.55,0,0,1-.9751-.94A2.6032,2.6032,0,0,1,144.9217,101.7046Zm.8961,0a1.88,1.88,0,0,0,.24.95,1.753,1.753,0,0,0,.6563.66,1.9976,1.9976,0,0,0,1.8983,0,1.7528,1.7528,0,0,0,.6562-.66,2.0067,2.0067,0,0,0,0-1.9029,1.7566,1.7566,0,0,0-.6562-.6576,1.9932,1.9932,0,0,0-1.8983,0,1.7569,1.7569,0,0,0-.6563.6576A1.8748,1.8748,0,0,0,145.8178,101.7046Z"/><path class="c" d="M152.4865,99.0683v2.8056a1.7615,1.7615,0,0,0,.4138,1.2144,1.3734,1.3734,0,0,0,1.0779.4665,1.5147,1.5147,0,0,0,.8019-.2142,1.5511,1.5511,0,0,0,.5588-.5824,1.6826,1.6826,0,0,0,.2055-.8329v-2.857h.87V104.34h-.7854l-.0475-.8981a2.1346,2.1346,0,0,1-1.777.9034,2.0836,2.0836,0,0,1-1.9055-1.138,2.5729,2.5729,0,0,1-.2821-1.2209V99.0683Z"/><path class="c" d="M158.101,104.34V99.0683h.7854l.0527.9666a2.1259,2.1259,0,0,1,.68-.7056,1.8135,1.8135,0,0,1,.9962-.2662c.1582,0,.3236.0013.4962.0026l-.1265.8928a1.2982,1.2982,0,0,0-.4856-.1048,1.3386,1.3386,0,0,0-1.1281.5239,2.0707,2.0707,0,0,0-.4006,1.2967V104.34Z"/><path class="c" d="M164.5905,99.0683h1.4337l.0369.5693a2.3635,2.3635,0,0,1,.7749-.4981,2.562,2.562,0,0,1,.9548-.1766,2.4783,2.4783,0,0,1,1.323.3558,2.52,2.52,0,0,1,.9119.9752,3.1608,3.1608,0,0,1,0,2.8207,2.5147,2.5147,0,0,1-.9119.9752,2.4783,2.4783,0,0,1-1.323.3558,2.5252,2.5252,0,0,1-.9232-.166,2.4853,2.4853,0,0,1-.759-.4613v3.1575h-1.5181Zm2.8576,1.2124a1.26,1.26,0,0,0-.96.4059,1.5542,1.5542,0,0,0,0,2.0353,1.3375,1.3375,0,0,0,1.9194,0,1.5542,1.5542,0,0,0,0-2.0353A1.2592,1.2592,0,0,0,167.4481,100.2807Z"/><path class="c" d="M171.3594,104.34V99.0683h1.3283l.0738.7538a1.8065,1.8065,0,0,1,1.582-.8592,2.5527,2.5527,0,0,1,.7064.1054l-.2109,1.3126a1.9322,1.9322,0,0,0-.6009-.1,1.22,1.22,0,0,0-.9864.4507,1.9633,1.9633,0,0,0-.3742,1.2842V104.34Z"/><path class="c" d="M175.2607,101.7046a2.7171,2.7171,0,0,1,.3664-1.4107,2.6453,2.6453,0,0,1,1.0015-.9752,3.116,3.116,0,0,1,2.8919,0,2.6533,2.6533,0,0,1,.9989.9752,2.8983,2.8983,0,0,1,0,2.8207,2.6481,2.6481,0,0,1-.9989.9752,3.116,3.116,0,0,1-2.8919,0,2.64,2.64,0,0,1-1.0015-.9752A2.7146,2.7146,0,0,1,175.2607,101.7046Zm1.4759,0a1.4323,1.4323,0,0,0,.38,1.0173,1.3374,1.3374,0,0,0,1.9193,0,1.5539,1.5539,0,0,0,0-2.0353,1.3374,1.3374,0,0,0-1.9193,0A1.4328,1.4328,0,0,0,176.7366,101.7046Z"/><path class="c" d="M181.8714,104.9622V99.0683H183.39v6.0678a1.7543,1.7543,0,0,1-1.9451,1.9451,2.6952,2.6952,0,0,1-.9857-.195v-1.244a1.4535,1.4535,0,0,0,.564.1212.8818.8818,0,0,0,.6088-.2135A.7453.7453,0,0,0,181.8714,104.9622Zm-.0843-7.6861a.7967.7967,0,1,1,.2319.6115A.8261.8261,0,0,1,181.7871,97.2761Z"/><path class="c" d="M185.7352,102.1579a1.3872,1.3872,0,0,0,.5245.7116,1.4953,1.4953,0,0,0,.8935.2741,2.0648,2.0648,0,0,0,.91-.1766,2.638,2.638,0,0,0,.6563-.4559l.9172,1.0964a3.7091,3.7091,0,0,1-1.21.6589,4.0041,4.0041,0,0,1-1.1471.1792,3.2438,3.2438,0,0,1-1.5445-.3558,2.6381,2.6381,0,0,1-1.4285-2.401,2.6968,2.6968,0,0,1,.3638-1.4,2.6488,2.6488,0,0,1,.9936-.97,2.8611,2.8611,0,0,1,1.4311-.3558,2.811,2.811,0,0,1,1.416.3532,2.6119,2.6119,0,0,1,.9778.97,2.7649,2.7649,0,0,1,.3584,1.4133v.4586Zm2.552-.8434a1.3529,1.3529,0,0,0-.4534-.7491,1.2462,1.2462,0,0,0-.8229-.2847,1.2924,1.2924,0,0,0-.8408.29,1.3468,1.3468,0,0,0-.4665.7439Z"/><path class="c" d="M190.3693,99.0683h.87V97.7505h1.5181v1.3178h1.2816v1.3178h-1.2816v1.9405a.7482.7482,0,0,0,.24.5877.8823.8823,0,0,0,.6094.2135,1.4563,1.4563,0,0,0,.5641-.1212v1.244a2.7116,2.7116,0,0,1-.9864.195,1.7573,1.7573,0,0,1-1.9451-1.9451v-2.1144h-.87Z"/><path class="c" d="M195.0139,103.6707l.7168-1.1438a6.4093,6.4093,0,0,0,.8355.477,1.6547,1.6547,0,0,0,.6826.1766.6118.6118,0,0,0,.3743-.1054.3219.3219,0,0,0,.1423-.2688.4359.4359,0,0,0-.2662-.3848,5.6613,5.6613,0,0,0-.6141-.29q-.3685-.1533-.7406-.3453a1.9574,1.9574,0,0,1-.622-.4981,1.2114,1.2114,0,0,1-.25-.7914,1.3612,1.3612,0,0,1,.53-1.1017,2.3161,2.3161,0,0,1,1.5-.4322,4.5374,4.5374,0,0,1,.9995.1186,3.1842,3.1842,0,0,1,.9567.3822l-.6694,1.1544a2.4819,2.4819,0,0,0-.6042-.2715,2.135,2.135,0,0,0-.63-.1186,1.0132,1.0132,0,0,0-.3242.0606.2329.2329,0,0,0-.1766.2346.3724.3724,0,0,0,.2451.3222,6.3609,6.3609,0,0,0,.5825.2583q.3638.1423.7492.3347a2.0026,2.0026,0,0,1,.6509.5113,1.26,1.26,0,0,1,.2662.8355,1.4287,1.4287,0,0,1-.2846.8908,1.7984,1.7984,0,0,1-.7591.5719,2.705,2.705,0,0,1-1.05.1977,3.63,3.63,0,0,1-1.1254-.19A3.8912,3.8912,0,0,1,195.0139,103.6707Z"/><path class="c" d="M203.8859,102.1579a1.3872,1.3872,0,0,0,.5245.7116,1.4953,1.4953,0,0,0,.8935.2741,2.0648,2.0648,0,0,0,.91-.1766,2.638,2.638,0,0,0,.6563-.4559l.9172,1.0964a3.7091,3.7091,0,0,1-1.21.6589,4.0036,4.0036,0,0,1-1.1471.1792,3.2438,3.2438,0,0,1-1.5445-.3558,2.6381,2.6381,0,0,1-1.4285-2.401,2.6968,2.6968,0,0,1,.3638-1.4,2.6488,2.6488,0,0,1,.9936-.97,2.8611,2.8611,0,0,1,1.4311-.3558,2.8107,2.8107,0,0,1,1.416.3532,2.6112,2.6112,0,0,1,.9778.97,2.7649,2.7649,0,0,1,.3584,1.4133v.4586Zm2.552-.8434a1.3529,1.3529,0,0,0-.4534-.7491,1.2462,1.2462,0,0,0-.8229-.2847,1.2924,1.2924,0,0,0-.8408.29,1.3468,1.3468,0,0,0-.4665.7439Z"/><path class="c" d="M209,104.34V99.0683h1.3283l.0633.6431a2.1422,2.1422,0,0,1,.7458-.5535,2.3163,2.3163,0,0,1,.9574-.195,1.8822,1.8822,0,0,1,1.4707.6088,2.4464,2.4464,0,0,1,.5482,1.6954V104.34H212.59v-2.7779q0-1.2819-.96-1.2816a1.0041,1.0041,0,0,0-.8039.3637,1.5386,1.5386,0,0,0-.3083,1.0233V104.34Z"/><path class="c" d="M217.5766,98.9629a2.5578,2.5578,0,0,1,.9573.1766,2.372,2.372,0,0,1,.7723.4981l.0369-.5693h1.4337v4.6552a3.8637,3.8637,0,0,1-.3821,1.7658,2.8478,2.8478,0,0,1-1.07,1.1729,3.0467,3.0467,0,0,1-1.6163.419,4.526,4.526,0,0,1-1.0858-.1423,5.7062,5.7062,0,0,1-1.1755-.4428l.4586-1.26a2.2191,2.2191,0,0,0,.738.3769,2.9333,2.9333,0,0,0,.9119.1555,1.568,1.568,0,0,0,1.2446-.5245,2.0751,2.0751,0,0,0,.4586-1.4153v-.0106a2.4853,2.4853,0,0,1-.759.4613,2.5251,2.5251,0,0,1-.9231.166,2.471,2.471,0,0,1-2.235-1.331,3.1608,3.1608,0,0,1,0-2.8207,2.512,2.512,0,0,1,.9145-.9752A2.4844,2.4844,0,0,1,217.5766,98.9629Zm.3426,4.1649a1.2573,1.2573,0,0,0,.96-.4059,1.5542,1.5542,0,0,0,0-2.0353,1.3375,1.3375,0,0,0-1.9194,0,1.5542,1.5542,0,0,0,0,2.0353A1.2571,1.2571,0,0,0,217.9192,103.1278Z"/><path class="c" d="M221.9787,102.8906a1.56,1.56,0,0,1,.3031-.9435,2.058,2.058,0,0,1,.8354-.6589,2.9031,2.9031,0,0,1,1.2177-.2425,4.1408,4.1408,0,0,1,.456.0263q.24.0258.4829.0686-.1738-.86-1.25-.86a2.141,2.141,0,0,0-1.2809.48l-.5219-1.2809a5.3835,5.3835,0,0,1,1.0806-.39,4.3866,4.3866,0,0,1,1.0121-.1265,2.8823,2.8823,0,0,1,1.3264.2873,2.1111,2.1111,0,0,1,.8724.8118,2.3744,2.3744,0,0,1,.311,1.2314V104.34h-1.2757l-.1-.564a2.1048,2.1048,0,0,1-.72.49,2.37,2.37,0,0,1-.93.1792,1.9552,1.9552,0,0,1-1.31-.4322A1.4029,1.4029,0,0,1,221.9787,102.8906Zm1.5181-.3479a.5153.5153,0,0,0,.2029.4243.8362.8362,0,0,0,.535.1608,1.1084,1.1084,0,0,0,.7624-.2741.8676.8676,0,0,0,.3084-.6747v-.1054a2.8573,2.8573,0,0,0-.42-.1,2.6549,2.6549,0,0,0-.44-.0369,1.3059,1.3059,0,0,0-.6984.1582A.5009.5009,0,0,0,223.4968,102.5427Z"/><path class="c" d="M230.2867,98.9629a2.5587,2.5587,0,0,1,.9574.1766,2.3715,2.3715,0,0,1,.7722.4981l.0369-.5693h1.4338v4.6552a3.8637,3.8637,0,0,1-.3821,1.7658,2.8478,2.8478,0,0,1-1.07,1.1729,3.0467,3.0467,0,0,1-1.6163.419,4.5254,4.5254,0,0,1-1.0858-.1423,5.704,5.704,0,0,1-1.1755-.4428l.4586-1.26a2.22,2.22,0,0,0,.7379.3769,2.9344,2.9344,0,0,0,.912.1555,1.568,1.568,0,0,0,1.2446-.5245,2.0756,2.0756,0,0,0,.4586-1.4153v-.0106a2.4853,2.4853,0,0,1-.759.4613,2.5252,2.5252,0,0,1-.9232.166,2.4713,2.4713,0,0,1-2.235-1.331,3.1616,3.1616,0,0,1,0-2.8207,2.5123,2.5123,0,0,1,.9146-.9752A2.4843,2.4843,0,0,1,230.2867,98.9629Zm.3427,4.1649a1.2575,1.2575,0,0,0,.96-.4059,1.5542,1.5542,0,0,0,0-2.0353,1.3375,1.3375,0,0,0-1.9194,0,1.5542,1.5542,0,0,0,0,2.0353A1.2569,1.2569,0,0,0,230.6294,103.1278Z"/><path class="c" d="M235.917,102.1579a1.3872,1.3872,0,0,0,.5245.7116,1.4953,1.4953,0,0,0,.8935.2741,2.0648,2.0648,0,0,0,.91-.1766,2.638,2.638,0,0,0,.6563-.4559l.9172,1.0964a3.7091,3.7091,0,0,1-1.21.6589,4.0041,4.0041,0,0,1-1.1471.1792,3.2438,3.2438,0,0,1-1.5445-.3558,2.6381,2.6381,0,0,1-1.4285-2.401,2.6968,2.6968,0,0,1,.3638-1.4,2.6488,2.6488,0,0,1,.9936-.97,2.8611,2.8611,0,0,1,1.4311-.3558,2.811,2.811,0,0,1,1.416.3532,2.6112,2.6112,0,0,1,.9778.97,2.7649,2.7649,0,0,1,.3584,1.4133v.4586Zm2.552-.8434a1.3529,1.3529,0,0,0-.4534-.7491,1.2462,1.2462,0,0,0-.8229-.2847,1.2924,1.2924,0,0,0-.8408.29,1.3468,1.3468,0,0,0-.4665.7439Zm-.58-2.9314h-1.4239l1.2071-1.95h1.7244Z"/><path class="c" d="M240.7145,103.6707l.7169-1.1438a6.4028,6.4028,0,0,0,.8355.477,1.6543,1.6543,0,0,0,.6826.1766.6117.6117,0,0,0,.3742-.1054.3219.3219,0,0,0,.1423-.2688.4358.4358,0,0,0-.2661-.3848,5.6793,5.6793,0,0,0-.6141-.29q-.3687-.1533-.7406-.3453a1.9563,1.9563,0,0,1-.622-.4981,1.2114,1.2114,0,0,1-.25-.7914,1.3614,1.3614,0,0,1,.53-1.1017,2.3161,2.3161,0,0,1,1.5-.4322,4.536,4.536,0,0,1,1,.1186,3.1838,3.1838,0,0,1,.9568.3822l-.6695,1.1544a2.48,2.48,0,0,0-.6042-.2715,2.1345,2.1345,0,0,0-.63-.1186,1.0137,1.0137,0,0,0-.3242.0606.2329.2329,0,0,0-.1766.2346.3724.3724,0,0,0,.2451.3222,6.3609,6.3609,0,0,0,.5825.2583q.3638.1423.7492.3347a2.003,2.003,0,0,1,.651.5113,1.261,1.261,0,0,1,.2662.8355,1.4287,1.4287,0,0,1-.2847.8908,1.7981,1.7981,0,0,1-.759.5719,2.7059,2.7059,0,0,1-1.05.1977,3.63,3.63,0,0,1-1.1254-.19A3.8912,3.8912,0,0,1,240.7145,103.6707Z"/><path class="c" d="M52.9363,60.1892a.3012.3012,0,0,0-.1264-.0223.2263.2263,0,0,0-.1386.0254c-1.4406.1734-1.658,1.2832-1.6868,2.4883a9.7292,9.7292,0,0,0-8.416-2.9072,10.0678,10.0678,0,0,0-7.5632,5.7193c-2.9124,6.009-.4878,14.8018,6.3342,16.812a9.5508,9.5508,0,0,0,9.64-2.5433v2.1433c0,.1657.2311.2656.3658.2656h3.25c.0942,0,.2063-.046.2063-.1552V63.0534C54.8011,61.6811,54.5471,60.3762,52.9363,60.1892ZM47.2185,78.5145a6.3715,6.3715,0,0,1-8.2595-2.2726,9.9,9.9,0,0,1-.6576-8.78,6.7042,6.7042,0,0,1,7.2076-4.1991c3.722.6045,5.59,4.3631,5.6334,7.8139C51.1064,73.9938,49.9376,77.095,47.2185,78.5145Z"/><path class="c" d="M22.4741,42.204c0-8.1615.1715-16.3432,0-24.5033a2.0132,2.0132,0,0,0-.7606-1.7118,1.9529,1.9529,0,0,0-3.0561,1.1741,9.9581,9.9581,0,0,0-.02,1.5989V28.199c0,6.9328.0259,12.542.0259,19.4747H22.5C22.5,45.4093,22.4741,44.4684,22.4741,42.204Z"/><path class="c" d="M179.9635,50.1563a1.7152,1.7152,0,0,0-1.2635-.4525,1.2539,1.2539,0,0,0-.94.4344c-.0179.0225-.0372.0491-.0551.0723-.1934.2455-.3929.5193-.602.81-1.0526,1.4588-2.3765,3.2713-4.2435,3.1134a1.285,1.285,0,0,0-1.47,1.2615,1.6768,1.6768,0,0,0,1.5112,1.8843c2.9895.2544,4.9112-2.1812,6.6125-4.3319l.434-.5471c.0116-.0145.0215-.0317.0329-.0467A1.6209,1.6209,0,0,0,179.9635,50.1563Z"/></svg>