<svg xmlns="http://www.w3.org/2000/svg" viewBox="0 0 129.4907 20.6656"><defs><style>.a{fill:#3addbe;}</style></defs><path class="a" d="M123.9232,19.9837a5.5408,5.5408,0,0,1-3.5585-1.2894l-.0544-.0435c-1.3046-.921-6.0651-3.1863-22.3569-4.8088-10.28-1.0237-23.5171-1.6318-39.3427-1.8078C31.537,11.7359,6.06,12.82,5.805,12.8308A5.5639,5.5639,0,1,1,5.3235,1.7134c.257-.0108,26.04-1.1117,53.4108-.8069,50.8673.5657,63.2268,5.2387,68.078,8.713.2613.1852.53.4037.6759.5254a5.5641,5.5641,0,0,1-3.565,9.8388Zm-3.5048-1.2563.0365.0245Zm-.0825-.0587c.0173.0131.0342.0245.0489.0354l-.0457-.0327Z"/></svg>