<svg xmlns="http://www.w3.org/2000/svg" viewBox="0 0 129.4907 20.6656"><defs><style>.a{fill:#ff7155;}</style></defs><path class="a" d="M123.9232,20.6656a5.54,5.54,0,0,1-3.5585-1.2894l-.0544-.0435c-1.3046-.921-6.0651-3.1863-22.3569-4.8088-10.28-1.0237-23.5171-1.6317-39.3427-1.8078-27.0737-.2994-52.5512.7863-52.8057.7966A5.5639,5.5639,0,1,1,5.3235,2.3953c.257-.0108,26.0413-1.1122,53.4105-.8069,50.8584.5657,63.2227,5.237,68.0756,8.7108.2624.1858.5325.4059.6786.5276a5.5641,5.5641,0,0,1-3.565,9.8388Zm-3.5069-1.2579.0386.0261Zm-.081-.0576c.0179.0136.0353.0255.05.0364l-.0467-.0331Z"/></svg>