<svg xmlns="http://www.w3.org/2000/svg" viewBox="0 0 129.4907 15.8196"><defs><style>.a{fill:#ffc543;}</style></defs><path class="a" d="M44.9014,15.82q-7.8018,0-14.252-.36C15.971,14.64,6.9163,12.5,2.154,8.727c-.0964-.0764-.3749-.3078-.6372-.5494A4.7135,4.7135,0,0,1,7.91,1.25c.05.047.1033.092.1332.1169,2.7179,2.1532,14.37,6.9325,62.959,4.2153,27.333-1.53,52.9315-4.7246,53.1869-4.7568a4.7135,4.7135,0,0,1,1.175,9.3534c-.2585.0322-26.18,3.2675-53.8351,4.8153C61.6932,15.544,52.7884,15.82,44.9014,15.82Z"/></svg>