<svg xmlns="http://www.w3.org/2000/svg" viewBox="0 0 1495.769 1057.0088"><defs><style>.a{fill:#ffc543;}</style></defs><path class="a" d="M1211.4945,1057.0088c-44.8007.001-85.7685-13.5542-121.7851-40.2925-29.1143-21.6138-54.9375-51.7871-76.752-89.6807-36.6494-63.6635-51.8281-131.6-53.2861-149.538-1.4033-12.0284-14.9746-111.7915-86.7949-200.77-41.21-51.0556-94.0518-89.3422-157.0586-113.7963-78.4771-30.4585-173.3487-39.6055-281.9829-27.191a704.6233,704.6233,0,0,1-79.8784,4.78c-114.1631.0025-202.38-32.2637-262.9214-96.3291-28.1543-29.793-50.1734-66.5293-65.4458-109.188C13.4613,201.127,5.5414,163.46,2.0492,123.0479A553.3385,553.3385,0,0,1,3.7348,10.8907,10.4962,10.4962,0,0,1,15.9355,1.833L25.977,3.5605,15.6288,1.78l.33.0565A10.4915,10.4915,0,0,1,24.6065,13.445a538.5775,538.5775,0,0,0-1.5841,108.3821c3.375,38.5391,10.935,74.3589,22.47,106.4659C59.788,268.0815,80.2719,302.25,106.3759,329.85,175.578,403.0151,284.9491,431.6216,431.45,414.876c112.0493-12.8062,210.2813-3.2251,291.9653,28.478,66.4727,25.8,122.2569,66.2354,165.8018,120.1836,31.7754,39.3662,56.4658,85.0015,73.3867,135.64,12.8008,38.3057,16.8965,67.1436,17.9043,75.6988l.0635.5185c.1182.9024.1982,1.522.249,1.9239q.0747.5933.1006,1.1557c2.2588,15.9639,15.4482,77.6553,50.2353,138.0845,20.37,35.3838,44.2813,63.4087,71.07,83.2964,32.3154,23.9907,69.08,36.1538,109.2724,36.1538.1358,0,.2686,0,.4033-.0005,74.8277-.1517,163.0289-42.4254,262.268-125.678a10.5047,10.5047,0,0,1,14.7348,1.2035h0a10.506,10.506,0,0,1-1.2253,14.8736c-103.1365,86.5089-195.8658,130.4391-275.7345,130.6009C1211.7973,1057.0083,1211.643,1057.0088,1211.4945,1057.0088Z"/></svg>
